<svg width="94" height="94" viewBox="0 0 94 94" fill="none" xmlns="http://www.w3.org/2000/svg"><g clip-path="url(#a)"><path d="M47 94c-.467 0-.932-.008-1.397-.022l9.605-26.398h13.22c2.32 0 4.866-1.783 5.66-3.962l10.42-28.624c1.705-4.686-.979-8.52-5.965-8.52H60.204L44.818 68.756h-.006l-8.724 23.968C15.393 87.804 0 69.201 0 47 0 25.44 14.518 7.272 34.31 1.735l-9 24.739h-.003L10.344 67.58l9.961.001 12.725-34.93h7.486l-12.725 34.93 9.957.002 11.859-32.589c1.706-4.686-.979-8.52-5.96-8.52h-8.374L44.887.049C45.587.02 46.291 0 47 0c25.957 0 47 21.043 47 47S72.957 94 47 94Zm28.438-61.374h-7.484L57.473 61.382h7.484l10.48-28.756Z" fill="#1E1E1E"/></g><defs><clipPath id="a"><path fill="#fff" d="M0 0h94v94H0z"/></clipPath></defs></svg>