<svg width="164" height="164" viewBox="0 0 164 164" fill="none" xmlns="http://www.w3.org/2000/svg"><g clip-path="url(#a)"><path fill-rule="evenodd" clip-rule="evenodd" d="M21.999 101.258c-12.52 0-18.933-4.662-18.933-13.593 0-8.767 6.529-13.617 18.933-13.617 12.45 0 18.91 4.803 18.91 13.663 0 8.791-6.46 13.547-18.91 13.547Zm-.117-21.474c-4.08 0-6.622 2.844-6.622 7.834 0 5.06 2.449 7.903 6.575 7.903 4.337 0 6.878-2.936 6.878-7.856 0-4.944-2.587-7.881-6.83-7.881Zm22.337 20.844V63.44h11.984v37.188H44.22Zm16.694-29.587V63.44h11.984v7.6H60.913Zm0 29.587V74.725h11.984v25.903H60.913Zm38.005 0H86.514l-13.15-25.903h12.59l7.228 16.857 7.811-16.857h10.888l-12.963 25.903ZM112.3 71.041V63.44h11.983v7.6H112.3Zm0 29.587V74.725h11.983v25.903H112.3Zm38.191 0a11.65 11.65 0 0 1-.63-3.824c-2.331 3.008-5.945 4.407-11.05 4.407-7.508 0-11.471-2.798-11.471-7.554 0-6.925 7.134-9.233 22.313-9.326 0-.21.069-.42.069-.63 0-2.681-1.609-3.963-4.825-3.963-2.846 0-4.384.91-4.687 2.89h-11.076c.117-5.852 5.479-8.533 16.345-8.533 10.491 0 15.597 3.194 15.597 9.932v13.198c0 1.187.047 2.285.514 3.403h-11.099Zm-.886-11.262c-6.925 0-10.025.63-10.025 3.405 0 1.655 1.351 2.75 3.94 2.75 4.08 0 6.085-1.91 6.085-5.734v-.42Z" fill="#1E1E1E"/></g><defs><clipPath id="a"><path fill="#fff" d="M0 0h164v164H0z"/></clipPath></defs></svg>