<svg width="146" height="146" viewBox="0 0 146 146" fill="none" xmlns="http://www.w3.org/2000/svg"><g clip-path="url(#a)" fill-rule="evenodd" clip-rule="evenodd" fill="#1E1E1E"><path d="M67.584 35.047c0 6.54-5.302 11.842-11.842 11.842-6.54 0-11.842-5.303-11.842-11.842 0-6.54 5.302-11.842 11.842-11.842 6.54 0 11.842 5.302 11.842 11.842ZM51.12 76.349c0 6.54-5.302 11.842-11.842 11.842-6.54 0-11.842-5.302-11.842-11.842 0-6.54 5.302-11.843 11.842-11.843 6.54 0 11.842 5.302 11.842 11.843Z"/><path d="M105.431 112.955 79.417 43.566h-13.43l-25.705 69.462H26.996v9.676h25.127l7.653-21.807h25.417l8.828 21.898h24.984v-9.84h-13.574Zm-40.31-25.776 7.22-22.384 8.087 22.384H65.12Z"/></g><defs><clipPath id="a"><path fill="#fff" d="M0 0h146v146H0z"/></clipPath></defs></svg>