<svg width="178" height="178" viewBox="0 0 178 178" fill="none" xmlns="http://www.w3.org/2000/svg"><g clip-path="url(#a)" fill-rule="evenodd" clip-rule="evenodd" fill="#1E1E1E"><path d="M76.43 106.798v-3.58h.719c1.656 0 2.423.577 2.423 1.837 0 1.151-.734 1.743-2.188 1.743h-.955Zm0-4.762v-3.114h.812c1.406 0 2.032.45 2.032 1.495 0 1.042-.718 1.619-2.032 1.619h-.813Zm-1.783-4.326c.063.357.11.886.11 1.555v7.254c0 .669-.047 1.213-.094 1.557h3.047c.938 0 1.516-.094 2.095-.375.953-.451 1.531-1.446 1.531-2.597 0-1.479-.89-2.382-2.453-2.49 1.282-.218 2.11-1.136 2.11-2.366 0-.702-.282-1.369-.797-1.806-.64-.544-1.438-.73-3.22-.73h-2.329v-.002Zm9.495 5.229c0-2.632 1-4.203 2.64-4.203 1.58 0 2.486 1.479 2.486 4.015 0 2.632-1 4.235-2.642 4.235-1.577-.001-2.484-1.479-2.484-4.047Zm-1.782.077c0 3.331 1.532 5.278 4.158 5.278 2.75 0 4.533-2.165 4.533-5.511 0-3.33-1.563-5.355-4.142-5.355-2.783 0-4.55 2.196-4.55 5.588Zm15.3.934h-.158c-.075 0-.31-.017-.687-.017-.42-.015-.656-.015-.701-.015-.097 0-.315 0-.69.015-.359 0-.578.017-.656.017h-.188l1.579-4.468 1.5 4.468Zm-2.36-6.24c-.125.575-.265 1.01-.64 1.944l-2.549 6.538c-.359.948-.562 1.368-.844 1.883h1.94l.03-.125c.103-.416.228-.827.375-1.23l.516-1.463.188-.016.906-.031c.203-.016.483-.016.86-.016.405 0 .733 0 .984.016l.86.031.155.016.455 1.338.124.451.14.481c.064.172.08.267.125.547h2.11l-.061-.125c-.329-.622-.516-1.058-.845-1.945l-3.14-8.295h-1.69v.001Zm8.683 4.387v-3.175l.14-.015h.532c1.579 0 2.188.42 2.188 1.51 0 1.089-.718 1.68-2 1.68h-.86Zm-1.813-4.387c.063.357.108.886.108 1.555v7.254c0 .685-.045 1.213-.108 1.557h1.906a8.885 8.885 0 0 1-.077-1.557v-3.191h.673c1.171 0 1.453.264 1.937 1.867l.502 1.666c.202.637.28.996.312 1.214h1.906a3.59 3.59 0 0 1-.249-.638l-.157-.468-.141-.436-.595-1.867c-.406-1.307-.843-1.774-1.781-1.977 1.405-.389 2.125-1.213 2.125-2.443 0-.904-.439-1.68-1.187-2.085-.579-.328-1.251-.45-2.314-.45h-2.86Zm10.467 9.072v-7.86h1.125c1.109 0 1.766.157 2.328.514.812.53 1.297 1.805 1.297 3.44 0 .981-.188 1.838-.547 2.523-.516 1.026-1.329 1.383-3.048 1.383h-1.155Zm-1.83-9.072c.061.357.108.886.108 1.57v7.239c0 .685-.047 1.213-.092 1.557h3.062c1.329 0 2.328-.204 3.079-.655 1.36-.81 2.204-2.585 2.204-4.7 0-1.261-.297-2.381-.891-3.316a3.73 3.73 0 0 0-1.062-1.09c-.689-.466-1.391-.605-3.048-.605h-3.36ZM81.526 83.192c-1.016-.297-1.72-.405-2.626-.405-3.126 0-4.862 1.962-4.862 5.448 0 3.3 1.595 5.416 4.08 5.416 1.344 0 2.61-.5 4.157-1.697l-.719-1.042c-.32.294-.677.546-1.062.749-.798.45-1.391.636-2.048.636-1.594 0-2.625-1.65-2.625-4.187 0-2.568 1.094-4.062 2.97-4.062.828 0 1.688.186 2.39.513l.345-1.37Zm3.208 5.105c0-2.63 1-4.203 2.642-4.203 1.578 0 2.484 1.478 2.484 4.016 0 2.63-1 4.233-2.641 4.233-1.58 0-2.485-1.477-2.485-4.046Zm-1.782.078c0 3.33 1.532 5.276 4.157 5.276 2.75 0 4.533-2.162 4.533-5.51 0-3.33-1.563-5.354-4.141-5.354-2.783 0-4.55 2.195-4.55 5.588Zm10.565-5.308c.03.219.03.296.03.546 0 .218-.015.685-.03.995l-.392 7.037c-.063 1.12-.108 1.463-.204 1.79h1.69a7.153 7.153 0 0 1-.049-.966c0-.217 0-.404.017-.56l.267-6.848 2.532 8.373h1.453l2.483-8.388.267 6.787c0 .123 0 .263.017.45v.67c0 .233 0 .296-.017.481h1.844a.635.635 0 0 0-.047-.14 2.342 2.342 0 0 1-.077-.558 6.188 6.188 0 0 1-.047-.561l-.033-.483-.375-6.957c-.014-.139-.014-.296-.03-.498v-.669c0-.232 0-.296.016-.5h-2.171l-2.486 8.468-2.501-8.467h-2.157v-.002Zm13.536 4.545v-3.33c.265 0 .359-.017.562-.017 1.751 0 2.328.42 2.328 1.635 0 1.167-.704 1.712-2.204 1.712h-.686Zm-1.83-4.545c.063.358.11.888.11 1.557v7.253c0 .685-.047 1.215-.094 1.557h1.921c-.061-.327-.108-.918-.108-1.557v-3.02h.75c1.235 0 1.906-.14 2.562-.545.797-.466 1.251-1.37 1.251-2.458 0-1.044-.407-1.884-1.141-2.35-.532-.327-1.079-.437-2.235-.437h-3.016Zm7.806 0c.063.358.11.888.11 1.573v7.237c0 .67-.047 1.215-.094 1.557h5.939v-1.369c-.25.061-.656.078-1.282.061h-2.828v-3.517h2.392c.469 0 .922.031 1.187.046v-1.338l-.11.015c-.139.015-.25.015-.327.015l-.328.016h-2.814v-3.05h2.563c.516 0 1.062.03 1.313.046v-1.293h-5.721v.001Zm7.446 0c.061.358.092.888.092 1.557v7.253c0 .685-.03 1.215-.077 1.557h1.641a9.435 9.435 0 0 1-.11-1.557v-6.708l4.345 8.264h1.861v-8.81c0-.654.031-1.214.094-1.557h-1.657c.077.467.11 1.028.11 1.557v6.554l-4.237-8.11h-2.062Zm9.433 10.134c.938.294 1.815.45 2.673.45 2.235 0 3.689-1.26 3.689-3.19 0-.45-.095-.87-.265-1.23-.345-.685-.939-1.183-2.252-1.884-1.625-.886-1.985-1.213-1.985-1.914 0-.81.751-1.401 1.782-1.401.532 0 .954.109 1.688.404l.328-1.308a7.582 7.582 0 0 0-2.157-.343c-1.984 0-3.361 1.169-3.361 2.88 0 .483.127.933.345 1.308.342.592.921 1.027 2.187 1.696 1.548.84 1.984 1.29 1.984 2.085 0 .98-.842 1.62-2.141 1.62-.749 0-1.343-.139-2.172-.543l-.343 1.37Zm13.103-3.892h-.155c-.08 0-.314-.017-.689-.017-.422-.015-.657-.015-.704-.015-.094 0-.312 0-.689.015-.359 0-.577.016-.655.016h-.187l1.578-4.466 1.501 4.466Zm-2.361-6.242c-.124.576-.265 1.013-.64 1.946l-2.546 6.538c-.361.948-.563 1.37-.844 1.883h1.937l.03-.125c.08-.327.235-.855.375-1.23l.517-1.463.189-.016.905-.03c.202-.016.485-.016.86-.016.406 0 .735 0 .985.015l.861.03.155.017.452 1.338.127.453.14.48c.061.173.078.264.125.546h2.11l-.063-.125c-.328-.622-.516-1.058-.842-1.946l-3.142-8.296h-1.691v.001Zm7.332 1.246v7.564c0 .67-.047 1.23-.095 1.557h1.923c-.079-.341-.108-.888-.108-1.557v-7.564h1.562c.469 0 .906.014 1.233.03l.141.016v-1.293h-7.596v1.293c.25-.032.657-.046 1.361-.046h1.579Zm5.739-1.246c.063.358.11.888.11 1.557v7.253c0 .685-.047 1.215-.094 1.557h1.922c-.063-.327-.11-.918-.11-1.571v-7.24c0-.622.047-1.228.11-1.556h-1.938Zm5.315 5.23c0-2.63.999-4.203 2.64-4.203 1.58 0 2.485 1.478 2.485 4.016 0 2.63-1.001 4.233-2.642 4.233-1.578 0-2.483-1.477-2.483-4.046Zm-1.782.078c0 3.33 1.531 5.276 4.157 5.276 2.751 0 4.533-2.162 4.533-5.51 0-3.33-1.564-5.354-4.141-5.354-2.783 0-4.549 2.195-4.549 5.588Zm10.281-5.308c.063.358.096.888.096 1.557v7.253c0 .685-.033 1.215-.08 1.557h1.641a9.545 9.545 0 0 1-.11-1.557v-6.708l4.347 8.264h1.86v-8.81c0-.654.03-1.214.094-1.557h-1.657c.079.467.109 1.028.109 1.557v6.554l-4.236-8.11h-2.064Zm-94.013-14.64c.203.466.344.887.578 1.882l2.078 8.483h1.532l1.938-8.015 1.939 8.015h1.562l2.018-8.497c.172-.717.39-1.433.562-1.868h-1.844a9.11 9.11 0 0 1-.156 1.152l-.109.56-1.204 6.21-1.906-7.922h-1.532l-1.924 7.922-1.25-6.304c-.14-.684-.203-1.197-.219-1.618h-2.063Zm14.523 5.23c0-2.63 1-4.203 2.641-4.203 1.58 0 2.485 1.479 2.485 4.017 0 2.63-1 4.233-2.64 4.233-1.579-.001-2.486-1.48-2.486-4.047Zm-1.781.077c0 3.33 1.531 5.277 4.157 5.277 2.751 0 4.533-2.164 4.533-5.51 0-3.33-1.564-5.355-4.143-5.355-2.781 0-4.547 2.195-4.547 5.588Zm12.142-.918V69.64l.14-.016h.532c1.578 0 2.187.42 2.187 1.511 0 1.09-.719 1.68-2.002 1.68h-.858Zm-1.812-4.39c.06.359.108.888.108 1.558v7.253c0 .684-.047 1.213-.108 1.556H98.5a8.901 8.901 0 0 1-.078-1.556v-3.191h.671c1.173 0 1.454.265 1.94 1.868l.499 1.665c.202.637.282.995.314 1.213h1.906a3.385 3.385 0 0 1-.25-.637l-.157-.467-.14-.437-.594-1.867c-.406-1.308-.844-1.774-1.782-1.976 1.406-.39 2.126-1.215 2.126-2.444 0-.902-.438-1.681-1.188-2.086-.577-.327-1.251-.451-2.313-.451h-2.86Zm8.321 0c.063.359.108.888.108 1.558v7.253c0 .684-.045 1.213-.094 1.556h1.922c-.061-.327-.11-.919-.11-1.556v-3.315l3.191 3.72c.061.094.172.218.295.374.127.17.218.28.284.358.202.234.218.264.327.42h2.344c-.171-.14-.202-.155-.499-.466l-.345-.39-.327-.357-3.923-4.312 3.423-3.626.375-.373.359-.39.392-.389.061-.062h-2.172a10.96 10.96 0 0 1-.736.935l-3.049 3.424v-2.803c0-.622.049-1.229.11-1.556h-1.936v-.002Zm9.191 0c.063.359.108.888.108 1.573v7.238c0 .67-.045 1.213-.094 1.556h5.941v-1.37c-.25.064-.656.08-1.282.064h-2.83v-3.52h2.392c.469 0 .923.03 1.188.047v-1.338l-.108.015c-.142.016-.25.016-.329.016l-.327.016h-2.816V69.67h2.565c.516 0 1.061.032 1.313.048v-1.292h-5.721Zm9.304 4.39V69.64l.14-.016h.532c1.578 0 2.188.42 2.188 1.511 0 1.09-.718 1.68-2.001 1.68h-.859Zm-1.813-4.39c.063.359.11.888.11 1.558v7.253c0 .684-.047 1.213-.11 1.556h1.908c-.063-.373-.096-.933-.08-1.556v-3.191h.674c1.172 0 1.453.265 1.937 1.868l.5 1.665c.204.637.283.995.313 1.213h1.908a3.455 3.455 0 0 1-.25-.637l-.157-.467-.14-.437-.596-1.867c-.405-1.308-.842-1.774-1.78-1.976 1.404-.39 2.126-1.215 2.126-2.444 0-.902-.438-1.681-1.188-2.086-.579-.327-1.251-.451-2.314-.451h-2.861Zm8.027 10.133c.939.296 1.813.452 2.674.452 2.235 0 3.688-1.26 3.688-3.191a2.83 2.83 0 0 0-.265-1.231c-.343-.684-.938-1.182-2.251-1.883-1.626-.887-1.986-1.214-1.986-1.914 0-.81.75-1.402 1.783-1.402.531 0 .953.11 1.688.404l.327-1.307a7.576 7.576 0 0 0-2.155-.343c-1.985 0-3.362 1.168-3.362 2.88 0 .482.124.933.344 1.308.343.59.922 1.027 2.188 1.695 1.548.84 1.985 1.291 1.985 2.086 0 .981-.846 1.62-2.142 1.62-.75 0-1.344-.141-2.172-.545l-.344 1.37Zm7.524-7.097 1.141.155.905-3.906-1.561-.203-.485 3.954Zm-11.107 32.84a3.18 3.18 0 0 0-.987-.154c-1.173 0-1.827.736-1.827 2.048 0 1.237.6 2.032 1.533 2.032.505 0 .98-.187 1.561-.638l-.268-.392a1.896 1.896 0 0 1-.401.282c-.299.17-.523.24-.769.24-.598 0-.986-.62-.986-1.572 0-.964.409-1.524 1.115-1.524.312 0 .635.07.898.191l.131-.513Zm1.206 1.915c0-.986.375-1.576.992-1.576.594 0 .935.554.935 1.506 0 .988-.377 1.589-.994 1.589-.594 0-.933-.556-.933-1.519Zm-.671.029c0 1.252.577 1.982 1.564 1.982 1.033 0 1.702-.812 1.702-2.068 0-1.251-.588-2.012-1.557-2.012-1.043 0-1.709.825-1.709 2.098Zm3.881-1.991c.023.133.044.331.044.584v2.721c0 .253-.02.457-.044.587h2.063v-.511c-.088.019-.229.023-.535.019h-.841v-2.816c0-.24.019-.462.042-.584h-.729Zm2.45 0c.023.133.034.331.034.584v1.874c0 .628.071.884.324 1.139.234.248.629.375 1.098.375.488 0 .869-.135 1.158-.422.299-.292.393-.582.393-1.221v-1.735c0-.234.013-.45.034-.595h-.692c.023.122.036.35.036.584v1.741c0 .443-.047.649-.201.859a.852.852 0 0 1-.687.323c-.247 0-.481-.094-.617-.252-.14-.168-.195-.409-.195-.835v-1.834c0-.235.013-.462.037-.585h-.722Zm3.908 0c.013.081.013.109.013.204a9.9 9.9 0 0 1-.013.375l-.146 2.641c-.025.42-.041.548-.077.673h.635a2.78 2.78 0 0 1-.018-.365c0-.081 0-.151.007-.21l.099-2.571.95 3.145h.547l.934-3.151.101 2.549c0 .045 0 .099.006.168v.252c0 .087 0 .112-.006.182h.693a.283.283 0 0 0-.019-.055.818.818 0 0 1-.03-.209 2.489 2.489 0 0 1-.017-.212l-.013-.18-.14-2.613c-.006-.053-.006-.11-.011-.186v-.25c0-.09 0-.112.005-.187h-.817l-.935 3.177-.94-3.177h-.808Zm5.187 3.413v-1.344h.271c.622 0 .91.216.91.689 0 .431-.276.655-.824.655h-.357Zm0-1.79v-1.167h.307c.528 0 .763.168.763.558 0 .394-.271.608-.763.608h-.307v.001Zm-.668-1.623c.023.133.041.331.041.584v2.721c0 .253-.018.457-.036.587h1.145c.354 0 .57-.036.787-.142.359-.168.577-.541.577-.976 0-.554-.335-.893-.921-.935.48-.081.791-.426.791-.887a.866.866 0 0 0-.075-.372.87.87 0 0 0-.224-.306c-.242-.204-.541-.274-1.211-.274h-.874Zm3.127 0c.03.193.043.388.04.584v2.721c0 .258-.016.457-.034.587h.721a3.665 3.665 0 0 1-.039-.592v-2.716c0-.234.016-.462.039-.584h-.727Zm3.424 2.343h-.058c-.03 0-.119-.005-.259-.005-.159-.008-.248-.008-.263-.008-.036 0-.118 0-.26.008-.134 0-.216.005-.247.005h-.069l.592-1.677.564 1.677Zm-.886-2.343a4.39 4.39 0 0 1-.242.73l-.957 2.453a4.89 4.89 0 0 1-.318.709h.728l.013-.047c.029-.125.089-.323.141-.464l.193-.548.07-.006.341-.011c.075-.007.182-.007.323-.007.153 0 .276 0 .369.007l.325.011.058.006.171.501.046.172.054.18c.023.063.029.099.047.206h.793l-.023-.047a5.164 5.164 0 0 1-.317-.733l-1.181-3.112h-.634Zm-23.101-4.298c0-.988.375-1.58.992-1.58.594 0 .934.558.934 1.51 0 .986-.376 1.587-.993 1.587-.594 0-.933-.554-.933-1.517Zm-.671.027c0 1.251.577 1.981 1.563 1.981 1.034 0 1.703-.813 1.703-2.068 0-1.252-.588-2.012-1.557-2.012-1.045.001-1.709.826-1.709 2.099Zm3.881-1.991c.023.133.042.333.042.582v2.724c0 .257-.019.456-.036.584h.723a3.068 3.068 0 0 1-.036-.59v-1.221h.817c.159 0 .33.013.452.023v-.508a3.583 3.583 0 0 1-.435.018h-.834V98.46h.858c.229 0 .424.006.534.018v-.484h-2.085v-.001Zm4.668 3.412v-1.346h.269c.624 0 .91.216.91.691 0 .433-.276.655-.822.655h-.357Zm0-1.787v-1.17h.307c.526 0 .762.169.762.561s-.27.608-.762.608h-.307Zm-.669-1.625c.022.133.04.333.04.582v2.724c0 .25-.018.456-.034.584h1.145c.352 0 .57-.034.787-.14.359-.168.577-.543.577-.974 0-.556-.335-.895-.923-.937.481-.081.793-.425.793-.887a.882.882 0 0 0-.301-.678c-.24-.204-.54-.274-1.209-.274h-.875Zm3.808 1.646v-1.19l.054-.008h.199c.594 0 .823.16.823.568 0 .408-.271.63-.752.63h-.324Zm-.681-1.646c.022.133.04.333.04.582v2.724c0 .257-.018.456-.04.584h.716a3.258 3.258 0 0 1-.029-.584v-1.198h.251c.442 0 .546.099.73.702l.186.626c.077.238.106.373.119.454h.715a1.354 1.354 0 0 1-.094-.238l-.059-.176-.052-.163-.224-.702c-.153-.49-.318-.668-.669-.743.528-.146.798-.455.798-.916a.868.868 0 0 0-.447-.785c-.216-.123-.469-.168-.867-.168h-1.074Zm3.245 0c.023.133.042.333.042.582v2.724c0 .257-.019.456-.036.584h.723a3.635 3.635 0 0 1-.042-.59v-2.718c0-.232.019-.46.042-.582h-.729Zm2.239.467v2.839c0 .25-.017.461-.034.584h.721a3.01 3.01 0 0 1-.042-.584v-2.84h.588c.175 0 .341.007.464.014l.054.005v-.484h-2.855v.484a4.31 4.31 0 0 1 .511-.018h.593Zm2.157-.467c.023.133.04.333.04.582v2.724c0 .257-.017.456-.035.584h.723a3.635 3.635 0 0 1-.041-.59v-2.718c0-.232.018-.46.041-.582h-.728Zm1.327 3.803c.354.11.681.17 1.005.17.838 0 1.385-.474 1.385-1.197 0-.172-.034-.328-.099-.462-.13-.258-.354-.445-.846-.708-.611-.333-.747-.456-.747-.719 0-.305.284-.524.671-.524.201 0 .358.04.634.151l.125-.49a2.834 2.834 0 0 0-.812-.13c-.745 0-1.261.44-1.261 1.082 0 .18.046.35.127.49.13.222.348.386.824.636.581.316.746.485.746.783 0 .368-.316.608-.805.608-.281 0-.505-.053-.815-.204l-.132.514Zm2.819-3.803c.023.133.04.333.04.582v2.724c0 .257-.017.456-.034.584h.721a3.935 3.935 0 0 1-.04-.584v-1.214l.053-.005c.216-.013.471-.02.705-.02.294 0 .722.013.88.025v1.214c0 .257-.011.469-.034.584h.721a4.01 4.01 0 0 1-.034-.59v-2.718c0-.243.013-.454.034-.582h-.721c.023.123.034.333.034.582V99.6h-.047c-.083-.007-.211-.007-.393-.013h-.77c-.18.006-.311.006-.381.006h-.047v-1.018c0-.232.019-.46.04-.582h-.727ZM53.823 67.67c.892 0 7.321 6.26 7.767 6.588 7.078 5.443 7.337 5.743 7.337 6.731v13.318l-7.48 7.876 6.468 6.443H57.343s-5.964-5.495-5.964-5.726V87.29c0-1.933 1.912-3.292 3.164-3.292 1.826 0 3.452 1.358 3.452 2.72v8.019c.864-.286 4.603-4.338 4.603-4.582v-6.588c0-.243-3.121-3.537-7.911-8.307-2.474-2.463-3.165-2.821-3.165-4.868 0-1.433.92-2.722 2.301-2.722Z"/><path d="M50.515 75.978c2.115 0 3.885 1.791 3.885 3.868 0 2.033-1.598 3.866-4.028 3.866-2.114 0-3.884-1.79-3.884-3.866 0-2.034 1.597-3.868 4.027-3.868Z"/><path d="M2.617 67.53h44.734c1.18 0 2.59.973 2.59 2.72 0 2.692-3.064 4.625-8.631 10.168-2.949 2.935-2.877 2.807-2.877 3.15v6.445c0 .187 3.064 3.708 4.603 4.725v-7.446c0-1.905 1.784-3.293 3.308-3.293 1.094 0 3.308 1.189 3.308 2.72v16.326l-5.61 5.584H32.968c-.661-1.673-3.667-3.177-4.314-3.007h-.432c-.014-.098-1.152-2.148-1.152-2.148h-1.582c-1.625 0-.402-1.718-3.02-1.861 0-1.934-2.401-4.784-2.444-5.013-.043-.202.445-.73-.144-2.721-.806-2.72-4.171-4.87-4.171-6.014v-1.146c0-.817.862-1.318 1.006-1.433V81.85c0-1.717-3.595-1.289-3.595-4.582 0-2.263-4.574-7.662-4.604-8.307h-.575c-1.121 1.604-.36.358-1.726 1.72H4.92c-.172-1.304-.26-1.116-2.303-3.15Z"/><path d="M13.26 85.287c.389.646.274.2.144.86 1.05-.086.503-.172 1.006.287-.287 1.117-.316 2.005-1.293 2.005-.39 0-1.339-.758-1.726-2.149.978-.258 1.294-.43 1.87-1.003Zm.72 3.438c.59.343.762.515 1.295.716-.245.314-.432.473-.432.715 0 .415.576.945.576 1.145 0 0-.158.288-.287.572-.173-.172-1.9-2.004-2.158-2.146.603-.472.444-.3 1.006-1.002Zm7.911 14.034h.864c1.682 1.675 3.552 1.561 3.739 1.718 0 0 .992 1.862 2.302 2.72.517.344 1.02-.157 2.3.717.706.485-.215.515.863 1.289v1.289a3.82 3.82 0 0 0-1.15 0c-.906-1.162-1.079-.072-1.438-1.433-.503.027-.273.027-.718 0-.432-.086-2.159-.976-2.159-2.148-.92-.115-2.444-.501-2.444-1.432v-.429c-2.002.002-1.685-.874-2.159-2.291Z"/></g><defs><clipPath id="a"><path fill="#fff" d="M0 0h178v178H0z"/></clipPath></defs></svg>