<svg width="152" height="152" viewBox="0 0 152 152" fill="none" xmlns="http://www.w3.org/2000/svg"><g clip-path="url(#a)"><path fill-rule="evenodd" clip-rule="evenodd" d="M76.674 85.888v31.228h26.022v-7.862H85.865v-4.983h14.395v-6.644H85.865v-3.876h16.831v-7.863H76.674Zm26.797 31.228h11.849l5.537-7.752 5.536 7.752h11.849l-11.849-16.389 10.741-14.84h-11.073l-5.204 7.088-5.205-7.087H104.69l10.574 14.784-11.793 16.444ZM27.84 106.153h6.533l-3.1-12.403-3.433 12.403Zm-2.99 10.963H14.33l12.29-31.228h9.856l9.966 31.228H37.14l-1.218-4.982H26.29l-1.44 4.982Zm-14.776 3.617h4.892v1.287h-3.362v1.607h2.914v1.19h-2.914v2.874h-1.53v-6.958Zm7.77 0h1.53v6.958h-1.53v-6.958Zm6.345 1.287h-2.085v-1.287h5.7v1.287H25.72v5.671h-1.53v-5.671Zm6.276-1.287h1.52l2.904 4.669h.02v-4.669h1.432v6.958h-1.53l-2.894-4.658h-.02v4.658h-1.432v-6.958Zm8.681 0h5.204v1.287h-3.674v1.491h3.372v1.189h-3.372v1.705h3.752v1.286h-5.282v-6.958Zm9.743 4.649c0 .926.72 1.286 1.54 1.286.535 0 1.354-.155 1.354-.867 0-.75-1.043-.878-2.066-1.151-1.033-.273-2.076-.672-2.076-1.977 0-1.424 1.346-2.106 2.602-2.106 1.452 0 2.787.633 2.787 2.243h-1.48c-.05-.839-.644-1.054-1.375-1.054-.487 0-1.052.205-1.052.79 0 .537.331.604 2.076 1.052.507.126 2.066.448 2.066 2.027 0 1.277-1.004 2.232-2.895 2.232-1.539 0-2.981-.761-2.961-2.476h1.48v.001Zm8.316 0c0 .926.72 1.286 1.54 1.286.536 0 1.354-.155 1.354-.867 0-.75-1.042-.878-2.066-1.151-1.033-.273-2.075-.672-2.075-1.977 0-1.424 1.345-2.106 2.602-2.106 1.451 0 2.786.633 2.786 2.243h-1.481c-.05-.839-.643-1.054-1.374-1.054-.487 0-1.052.205-1.052.79 0 .537.331.604 2.076 1.052.507.126 2.066.448 2.066 2.027 0 1.277-1.004 2.232-2.894 2.232-1.54 0-2.983-.761-2.963-2.476h1.481v.001Zm11.754-4.649h5.203v1.287h-3.674v1.491h3.372v1.189h-3.372v1.705h3.752v1.286h-5.28v-6.958Zm11.758-.166c-2.155 0-3.421 1.608-3.421 3.675 0 2.007 1.266 3.615 3.42 3.615.652 0 1.229-.147 1.686-.411l.984.897.711-.75-.867-.788c.583-.664.905-1.561.905-2.563 0-2.066-1.266-3.675-3.418-3.675Zm0 1.286c1.372 0 1.89 1.17 1.89 2.389 0 .721-.177 1.247-.43 1.597l-.79-.721-.71.761.652.594c-.108.097-.39.097-.612.097-1.376 0-1.891-1.168-1.891-2.328 0-1.218.516-2.389 1.89-2.389Zm12.25 3.207c0 1.881-1.111 2.797-2.974 2.797-1.87 0-2.962-.905-2.962-2.797v-4.326h1.53v4.326c0 .761.193 1.511 1.432 1.511 1.092 0 1.441-.477 1.441-1.511v-4.326h1.53v4.326h.002Zm2.863-4.327h1.532v6.958H95.83v-6.958Zm6.288 4.465h1.607c1.734 0 2.406-1.101 2.406-2.232 0-1.131-.672-2.232-2.406-2.232h-3.138v6.957h1.531v-2.493Zm0-3.275h1.189c.711 0 1.344.155 1.344 1.042 0 .886-.633 1.043-1.344 1.043h-1.189v-2.085Zm6.963-1.19h2.153l1.628 4.785h.018l1.541-4.785h2.152v6.958h-1.432v-4.93h-.02l-1.705 4.93h-1.178l-1.705-4.881h-.02v4.881h-1.432v-6.958Zm10.61 0h5.203v1.287h-3.674v1.491h3.372v1.189h-3.372v1.705h3.752v1.286h-5.281v-6.958Zm8.086 0h1.52l2.903 4.669h.02v-4.669h1.432v6.958h-1.529l-2.894-4.658h-.02v4.658h-1.432v-6.958Zm10.532 1.287h-2.086v-1.287h5.7v1.287h-2.085v5.671h-1.529v-5.671Zm-74.758-14.986c5.838 0 10.571-4.733 10.571-10.57 0-5.839-4.733-10.57-10.57-10.57H47.993v31.222h9.302v-24.03l4.595.011a3.367 3.367 0 0 1 0 6.735h-4.595v7.208l6.255-.006Zm-23.088-29.45 36.1-20.819V16.9l-36.1 60.683Zm73.529 0-36.1-20.819V16.9l36.1 60.683Zm-2.215.332-34.44-19.822L42.9 77.916h68.877Z" fill="#1E1E1E"/></g><defs><clipPath id="a"><path fill="#fff" d="M0 0h152v152H0z"/></clipPath></defs></svg>