<svg width="144" height="144" viewBox="0 0 144 144" fill="none" xmlns="http://www.w3.org/2000/svg"><g clip-path="url(#a)"><path fill-rule="evenodd" clip-rule="evenodd" d="M34.608 73.446c-3.75 1.267-6.48 2.624-8.23 4.087-1.998 1.732-2.998 3.874-2.998 6.427 0 1.766.447 3.141 1.357 4.159.91 1.016 2.142 1.516 3.677 1.516.874 0 1.802-.285 2.766-.856.982-.589 1.731-1.303 2.25-2.16.785-1.481 1.178-4.266 1.178-8.353v-4.82Zm34.05 2.87 4.732 5.898c2.595-4.795-.33-6.885-4.731-5.898ZM57.587 92.97c-3.354-1.425-5.213-3.491-5.938-5.881-1.291-4.259 1.384-8.43 4.361-11.232a23.29 23.29 0 0 1 1.904-1.602l-1.64-2.024c-2.974 1.718-5.354 3.503-7.138 5.357-1.798 1.84-2.696 4.112-2.696 6.803 0 3.3.952 6.02 2.868 8.13 1.877 2.163 4.494 3.247 7.825 3.247 4.83 0 9.54-3.426 12.624-6.899l-7.61-9.389c-1.323.998-4.575 3.89-4.039 5.658.16.525.808 1.081 2.116 1.636l-2.637 6.196Zm-4.644-39.946c0 2.326.476 4.261 1.428 5.816.912 1.61 2.445 3.625 4.613 6.02 2.788-1.731 4.824-3.531 6.08-5.385 1.216-1.825 1.824-3.679 1.824-5.586 0-2.273-.66-4.031-1.97-5.262-1.321-1.244-2.96-1.866-4.93-1.866-2.168 0-3.887.622-5.142 1.866-1.269 1.23-1.903 2.706-1.903 4.397Zm25.568 47.089H65.836c2.87-1.467 5.442-3.569 7.793-6.13l4.88 6.13Zm-31.43 0h-9.992c-.803-2.195-1.232-4.623-1.303-7.3-1.643 2.839-3.57 4.909-5.784 6.212-2.213 1.303-4.89 1.945-8.014 1.945-5.034 0-8.907-1.303-11.602-3.926-2.695-2.624-4.033-6.39-4.033-11.299 0-4.588 1.284-8.229 3.837-10.923 1.41-1.429 3.177-2.696 5.32-3.82 2.123-1.125 5.354-2.464 9.692-4 3.408-1.16 5.872-2.373 7.39-3.623 1.499-1.267 2.249-2.731 2.249-4.39 0-1.536-.411-2.732-1.25-3.57-.839-.839-2-1.25-3.48-1.25-1.572 0-2.839.572-3.784 1.731-.964 1.16-1.428 2.731-1.428 4.695v1.07H7.941c.303-3.962.874-6.89 1.73-8.78 3.179-6.57 9.782-9.854 19.814-9.854.424 0 .847.005 1.268.015l-.014-.012h21.513a13.02 13.02 0 0 0-2.165 1.617c-2.683 2.434-4.03 5.52-4.03 9.239 0 2.218.58 4.517 1.744 6.898 1.11 2.367 2.67 4.599 4.68 6.656l-4.919 3.164c-2.617 1.665-4.68 3.815-6.199 6.426-1.52 2.584-2.287 5.397-2.287 8.44 0 5.073 1.639 9.158 4.917 12.243.929.92 1.965 1.724 3.087 2.396Zm21.027-57.079h30.038l5.979 44.87h.215l6.229-44.87h27.078v57.079h-16.601V62.522l.108-4.498-.108-2.678-.213-.107-.751 3.534-.517 2.463-.446 2.357-6.211 36.519H94.915l-6.123-36.324c-.035-.107-.09-.446-.196-1.035a16.285 16.285 0 0 0-.322-1.624c-.072-.268-.197-.732-.357-1.393a36.44 36.44 0 0 1-.5-2.248l-.553-2.357-.214.108v2.142l.213 5.676V98.74l-8.715-10.778a34.59 34.59 0 0 0 1.972-3.816l.012.003c2.694-6.84.112-13.946-8.14-14.744-2.41-.233-5.146.3-7.805 1.34l-1.477-1.842c4.23-2.583 7.086-5.167 8.553-7.724 1.415-2.529 2.128-5.329 2.128-8.358 0-2.909-1.11-5.6-3.33-8.09a10.914 10.914 0 0 0-1.954-1.697Z" fill="#1E1E1E"/></g><defs><clipPath id="a"><path fill="#fff" d="M0 0h144v144H0z"/></clipPath></defs></svg>