<svg width="178" height="178" viewBox="0 0 178 178" fill="none" xmlns="http://www.w3.org/2000/svg"><g clip-path="url(#a)" fill-rule="evenodd" clip-rule="evenodd" fill="#A586FF"><path d="M76.43 106.799v-3.581h.72c1.656 0 2.422.578 2.422 1.838 0 1.151-.734 1.743-2.187 1.743h-.955Zm0-4.762v-3.114h.813c1.406 0 2.032.45 2.032 1.495 0 1.042-.718 1.619-2.032 1.619h-.813Zm-1.782-4.326c.063.357.11.886.11 1.555v7.254c0 .669-.047 1.213-.094 1.557h3.047c.938 0 1.516-.094 2.094-.375.954-.451 1.532-1.446 1.532-2.597 0-1.479-.89-2.382-2.453-2.49 1.281-.218 2.11-1.136 2.11-2.366 0-.702-.282-1.369-.797-1.806-.64-.544-1.438-.73-3.22-.73h-2.33v-.002Zm9.495 5.229c0-2.632 1-4.203 2.64-4.203 1.58 0 2.486 1.479 2.486 4.015 0 2.632-1 4.235-2.642 4.235-1.578-.001-2.484-1.479-2.484-4.047Zm-1.783.077c0 3.331 1.532 5.278 4.159 5.278 2.75 0 4.533-2.165 4.533-5.511 0-3.33-1.564-5.355-4.142-5.355-2.783 0-4.55 2.195-4.55 5.588Zm15.3.934h-.157c-.076 0-.31-.017-.687-.017-.42-.015-.657-.015-.702-.015-.096 0-.314 0-.689.015-.359 0-.579.017-.656.017h-.188l1.578-4.468 1.501 4.468Zm-2.36-6.24c-.124.575-.264 1.01-.64 1.944l-2.548 6.538c-.36.948-.562 1.368-.844 1.883h1.94l.03-.125c.102-.416.227-.827.375-1.23l.516-1.463.187-.016.907-.031c.202-.016.483-.016.859-.016.405 0 .734 0 .984.016l.861.031.155.016.455 1.338.124.451.14.481c.063.172.08.267.125.547h2.11l-.061-.125c-.329-.622-.516-1.058-.846-1.945l-3.14-8.295h-1.688v.001Zm8.684 4.387v-3.175l.14-.015h.532c1.578 0 2.188.42 2.188 1.51 0 1.089-.718 1.68-2 1.68h-.86Zm-1.813-4.387c.063.357.108.886.108 1.555v7.254c0 .685-.045 1.213-.108 1.557h1.906a8.885 8.885 0 0 1-.077-1.557v-3.191h.673c1.171 0 1.453.263 1.937 1.867l.502 1.666c.202.637.279.996.312 1.214h1.906a3.672 3.672 0 0 1-.25-.638l-.157-.468-.14-.436-.596-1.867c-.405-1.307-.842-1.774-1.78-1.977 1.405-.389 2.125-1.213 2.125-2.443 0-.904-.439-1.68-1.187-2.085-.579-.328-1.251-.451-2.314-.451h-2.86Zm10.466 9.072v-7.86h1.126c1.109 0 1.766.157 2.328.514.812.53 1.297 1.805 1.297 3.44 0 .981-.188 1.837-.547 2.523-.516 1.026-1.329 1.383-3.048 1.383h-1.156Zm-1.829-9.072c.061.357.108.886.108 1.57v7.239c0 .685-.047 1.213-.092 1.557h3.062c1.329 0 2.328-.204 3.079-.655 1.36-.81 2.204-2.585 2.204-4.7 0-1.261-.297-2.381-.891-3.316a3.744 3.744 0 0 0-1.062-1.09c-.689-.466-1.391-.605-3.048-.605h-3.36ZM81.527 83.193c-1.016-.297-1.72-.405-2.627-.405-3.126 0-4.86 1.962-4.86 5.449 0 3.298 1.594 5.416 4.079 5.416 1.344 0 2.61-.5 4.156-1.698l-.718-1.042c-.32.294-.677.546-1.062.749-.798.45-1.392.636-2.048.636-1.594 0-2.626-1.65-2.626-4.187 0-2.568 1.095-4.062 2.97-4.062.829 0 1.688.186 2.391.513l.345-1.37Zm3.208 5.105c0-2.63 1-4.203 2.642-4.203 1.578 0 2.484 1.478 2.484 4.016 0 2.63-1 4.233-2.641 4.233-1.58 0-2.485-1.477-2.485-4.046Zm-1.783.078c0 3.33 1.532 5.276 4.158 5.276 2.75 0 4.533-2.162 4.533-5.51 0-3.33-1.564-5.354-4.142-5.354-2.782 0-4.549 2.195-4.549 5.588Zm10.566-5.308c.03.219.03.296.03.546 0 .218-.015.685-.03.995l-.392 7.037c-.063 1.12-.108 1.463-.204 1.79h1.69a7.153 7.153 0 0 1-.05-.966c0-.217 0-.404.017-.56l.267-6.848 2.532 8.374h1.454l2.483-8.39.267 6.788c0 .123 0 .263.017.45v.67c0 .233 0 .296-.017.482h1.844a.635.635 0 0 0-.047-.14 2.396 2.396 0 0 1-.078-.56 6.566 6.566 0 0 1-.047-.56l-.032-.483-.375-6.957c-.015-.139-.015-.296-.03-.498v-.669c0-.232 0-.296.016-.5h-2.172l-2.485 8.468-2.501-8.467h-2.157v-.002Zm13.535 4.545v-3.33c.265 0 .36-.017.563-.017 1.751 0 2.328.42 2.328 1.635 0 1.167-.704 1.712-2.204 1.712h-.687Zm-1.829-4.545c.063.358.11.888.11 1.557v7.253c0 .685-.047 1.215-.094 1.557h1.921c-.061-.327-.109-.918-.109-1.557v-3.02h.75c1.236 0 1.906-.14 2.563-.545.797-.466 1.251-1.37 1.251-2.458 0-1.044-.407-1.884-1.141-2.35-.532-.327-1.079-.437-2.235-.437h-3.016Zm7.806 0c.063.358.11.888.11 1.573v7.237c0 .67-.047 1.215-.094 1.557h5.939v-1.369c-.25.061-.656.078-1.282.061h-2.828V88.61h2.392c.469 0 .921.031 1.186.046v-1.338l-.11.015c-.138.015-.249.015-.326.015l-.328.016h-2.814v-3.05h2.563c.516 0 1.062.03 1.313.046v-1.293h-5.721v.001Zm7.446 0c.061.358.092.888.092 1.557v7.253c0 .685-.03 1.215-.078 1.557h1.641a9.546 9.546 0 0 1-.109-1.557V85.17l4.344 8.264h1.862v-8.81c0-.654.031-1.214.094-1.557h-1.657c.077.467.11 1.028.11 1.557v6.554l-4.237-8.111h-2.062v.001Zm9.433 10.134c.938.294 1.814.45 2.673.45 2.235 0 3.688-1.26 3.688-3.19 0-.45-.094-.87-.265-1.23-.344-.685-.938-1.183-2.251-1.884-1.625-.886-1.985-1.213-1.985-1.914 0-.81.751-1.401 1.782-1.401.532 0 .954.109 1.688.403l.328-1.307a7.588 7.588 0 0 0-2.157-.343c-1.984 0-3.361 1.168-3.361 2.88 0 .483.127.933.345 1.308.342.592.921 1.027 2.187 1.696 1.548.84 1.984 1.29 1.984 2.085 0 .98-.842 1.62-2.141 1.62-.75 0-1.343-.14-2.172-.543l-.343 1.37Zm13.103-3.892h-.156c-.079 0-.314-.017-.689-.017-.422-.015-.656-.015-.703-.015-.094 0-.312 0-.689.015-.359 0-.577.016-.655.016h-.187l1.578-4.466 1.501 4.466Zm-2.361-6.242c-.124.576-.265 1.013-.64 1.946l-2.547 6.538c-.361.948-.562 1.37-.844 1.883h1.938l.03-.125c.08-.327.235-.855.375-1.23l.516-1.463.19-.017.905-.03c.202-.015.484-.015.86-.015.406 0 .734 0 .985.015l.86.03.155.017.453 1.338.126.453.141.48c.061.173.077.264.124.546h2.111l-.063-.125c-.328-.622-.516-1.058-.842-1.946l-3.142-8.296h-1.691v.001Zm7.331 1.246v7.564c0 .67-.047 1.23-.094 1.557h1.923c-.08-.341-.108-.888-.108-1.557v-7.564h1.561c.469 0 .907.015 1.234.03l.14.016v-1.293h-7.595v1.293c.249-.032.657-.046 1.36-.046h1.579Zm5.74-1.246c.062.358.11.888.11 1.557v7.253c0 .685-.048 1.215-.095 1.557h1.923c-.063-.327-.11-.918-.11-1.571v-7.24c0-.621.047-1.228.11-1.556h-1.938Zm5.315 5.23c0-2.63.999-4.203 2.64-4.203 1.58 0 2.485 1.478 2.485 4.016 0 2.63-1.001 4.233-2.642 4.233-1.578 0-2.483-1.477-2.483-4.046Zm-1.782.078c0 3.33 1.531 5.276 4.157 5.276 2.751 0 4.532-2.162 4.532-5.51 0-3.33-1.563-5.354-4.14-5.354-2.784 0-4.549 2.195-4.549 5.588Zm10.281-5.308c.062.358.096.888.096 1.557v7.253c0 .685-.033 1.215-.08 1.557h1.641a9.547 9.547 0 0 1-.11-1.557V85.17l4.347 8.264h1.86v-8.81c0-.654.03-1.214.094-1.557h-1.658c.08.467.11 1.028.11 1.557v6.554l-4.237-8.111h-2.063v.001Zm-94.013-14.64c.203.466.344.887.578 1.883l2.078 8.482h1.532l1.937-8.015 1.94 8.015h1.562l2.018-8.497c.171-.717.39-1.433.562-1.868h-1.844a9.11 9.11 0 0 1-.156 1.152l-.11.56-1.203 6.21-1.906-7.922h-1.532l-1.924 7.922-1.25-6.304c-.14-.684-.203-1.197-.219-1.618h-2.063Zm14.523 5.23c0-2.63 1-4.203 2.641-4.203 1.58 0 2.485 1.479 2.485 4.017 0 2.63-1 4.233-2.64 4.233-1.58-.001-2.486-1.48-2.486-4.047Zm-1.781.077c0 3.33 1.53 5.277 4.157 5.277 2.751 0 4.532-2.164 4.532-5.511 0-3.33-1.563-5.354-4.142-5.354-2.782 0-4.547 2.195-4.547 5.588Zm12.141-.918v-3.175l.14-.016h.532c1.579 0 2.188.42 2.188 1.511 0 1.09-.719 1.68-2.002 1.68h-.858Zm-1.812-4.39c.061.359.109.888.109 1.558v7.253c0 .684-.048 1.213-.109 1.556H98.5a8.89 8.89 0 0 1-.077-1.556v-3.191h.671c1.173 0 1.454.265 1.939 1.868l.5 1.665c.202.637.282.995.314 1.213h1.906a3.317 3.317 0 0 1-.25-.637l-.157-.467-.141-.437-.593-1.867c-.406-1.308-.844-1.774-1.783-1.976 1.407-.39 2.127-1.215 2.127-2.444 0-.902-.439-1.681-1.188-2.086-.578-.327-1.251-.451-2.313-.451h-2.86Zm8.322 0c.062.359.108.888.108 1.558v7.253c0 .684-.046 1.213-.095 1.556h1.923c-.061-.327-.11-.919-.11-1.556v-3.315l3.191 3.72c.061.094.171.218.295.374.127.17.218.28.284.358.202.234.218.264.327.42h2.344c-.172-.14-.202-.155-.499-.466l-.345-.39-.328-.357-3.922-4.312 3.423-3.626.375-.373.359-.39.391-.389.061-.062h-2.171a10.96 10.96 0 0 1-.736.935l-3.049 3.424v-2.803c0-.622.049-1.229.11-1.556h-1.936v-.002Zm9.191 0c.062.359.108.888.108 1.573v7.238a11.7 11.7 0 0 1-.094 1.556h5.941v-1.37c-.25.064-.657.08-1.283.064h-2.829v-3.52h2.392c.469 0 .923.03 1.188.047v-1.338l-.108.015c-.142.016-.25.016-.33.016l-.327.016h-2.815v-3.052h2.564c.517 0 1.062.032 1.313.048v-1.292h-5.72Zm9.303 4.39v-3.175l.141-.016h.532c1.578 0 2.187.42 2.187 1.511 0 1.09-.717 1.68-2 1.68h-.86Zm-1.812-4.39a9.5 9.5 0 0 1 .11 1.558v7.253c0 .684-.048 1.213-.11 1.556h1.908c-.063-.373-.096-.933-.08-1.556v-3.191h.673c1.173 0 1.454.265 1.938 1.868l.499 1.665c.204.637.284.995.314 1.213h1.908a3.317 3.317 0 0 1-.25-.637l-.157-.467-.14-.437-.596-1.867c-.406-1.308-.842-1.774-1.781-1.976 1.405-.39 2.127-1.215 2.127-2.444 0-.902-.438-1.681-1.188-2.086-.579-.327-1.252-.451-2.314-.451h-2.861Zm8.027 10.133c.938.296 1.813.452 2.674.452 2.234 0 3.688-1.26 3.688-3.191a2.83 2.83 0 0 0-.265-1.231c-.343-.684-.938-1.182-2.252-1.883-1.625-.887-1.985-1.214-1.985-1.914 0-.81.75-1.402 1.782-1.402.532 0 .954.11 1.688.404l.328-1.307a7.583 7.583 0 0 0-2.155-.343c-1.986 0-3.362 1.168-3.362 2.88 0 .482.124.933.344 1.308.343.59.922 1.027 2.188 1.695 1.547.84 1.985 1.291 1.985 2.086 0 .981-.846 1.62-2.142 1.62-.75 0-1.344-.141-2.172-.545l-.344 1.37Zm7.524-7.097 1.141.155.905-3.906-1.562-.203-.484 3.954Zm-11.108 32.84a3.17 3.17 0 0 0-.986-.154c-1.174 0-1.827.736-1.827 2.048 0 1.237.6 2.032 1.533 2.032.505 0 .98-.187 1.561-.638l-.269-.392c-.12.111-.255.206-.4.282-.3.17-.523.24-.769.24-.598 0-.986-.62-.986-1.572 0-.964.409-1.524 1.115-1.524.312 0 .635.07.898.191l.13-.513Zm1.207 1.915c0-.986.375-1.576.992-1.576.594 0 .935.554.935 1.506 0 .988-.377 1.589-.994 1.589-.594 0-.933-.556-.933-1.519Zm-.671.029c0 1.252.577 1.982 1.563 1.982 1.034 0 1.703-.812 1.703-2.068 0-1.251-.588-2.012-1.557-2.012-1.043 0-1.709.825-1.709 2.098Zm3.881-1.991c.023.133.044.331.044.584v2.721c0 .253-.02.457-.044.587h2.063v-.511c-.088.019-.229.023-.535.019h-.841v-2.816c0-.24.019-.462.042-.584h-.729Zm2.45 0c.023.133.034.331.034.584v1.874c0 .628.07.883.323 1.139.235.248.63.375 1.098.375.489 0 .869-.135 1.158-.422.3-.292.394-.583.394-1.221v-1.735c0-.234.013-.45.034-.595h-.693c.023.122.036.35.036.584v1.741c0 .443-.047.649-.2.859a.852.852 0 0 1-.687.323c-.247 0-.481-.094-.617-.252-.14-.168-.195-.409-.195-.835v-1.834c0-.235.013-.462.036-.585h-.721Zm3.908 0c.013.081.013.109.013.204a9.9 9.9 0 0 1-.013.375l-.146 2.641c-.025.42-.041.548-.077.673h.635a2.78 2.78 0 0 1-.018-.365c0-.081 0-.151.007-.21l.099-2.571.95 3.145h.547l.934-3.151.101 2.549c0 .045 0 .099.005.168v.252c0 .087 0 .112-.005.182h.692c-.005-.025-.013-.042-.018-.055a.866.866 0 0 1-.031-.209 2.488 2.488 0 0 1-.016-.212l-.013-.18-.14-2.613c-.006-.053-.006-.11-.012-.186v-.25c0-.091 0-.112.006-.187h-.817l-.935 3.177-.94-3.177h-.808Zm5.187 3.413v-1.344h.271c.622 0 .91.216.91.689 0 .431-.276.655-.824.655h-.357Zm0-1.79v-1.167h.307c.528 0 .762.168.762.558 0 .394-.27.608-.762.608h-.307v.001Zm-.668-1.623c.023.133.041.331.041.584v2.721c0 .253-.018.457-.036.587h1.145c.354 0 .57-.036.787-.142.359-.168.577-.541.577-.976 0-.555-.335-.893-.922-.935.481-.081.792-.426.792-.887a.881.881 0 0 0-.299-.678c-.242-.204-.541-.274-1.211-.274h-.874Zm3.127 0c.029.193.043.388.04.584v2.721c0 .258-.017.457-.034.587h.721a3.784 3.784 0 0 1-.04-.592v-2.716c0-.234.017-.462.04-.584h-.727Zm3.423 2.343h-.057c-.03 0-.119-.005-.259-.005-.159-.008-.248-.008-.263-.008-.036 0-.118 0-.26.008-.134 0-.216.005-.247.005h-.069l.592-1.677.563 1.677Zm-.885-2.343a4.39 4.39 0 0 1-.242.73l-.958 2.453a4.78 4.78 0 0 1-.317.709h.728l.013-.047c.029-.125.089-.323.141-.464l.193-.548.07-.006.34-.011c.076-.007.182-.007.324-.007.153 0 .276 0 .369.007l.325.011.057.006.172.501.045.172.055.18c.023.063.029.099.047.206h.793l-.023-.047a5.17 5.17 0 0 1-.318-.733l-1.181-3.112H147Zm-23.101-4.298c0-.988.375-1.58.992-1.58.593 0 .934.558.934 1.51 0 .986-.377 1.587-.993 1.587-.594 0-.933-.554-.933-1.517Zm-.671.027c0 1.251.577 1.981 1.563 1.981 1.033 0 1.703-.813 1.703-2.068 0-1.251-.588-2.011-1.557-2.011-1.045 0-1.709.825-1.709 2.098Zm3.881-1.991c.023.133.041.333.041.582v2.724c0 .257-.018.456-.036.584h.723a3.237 3.237 0 0 1-.036-.59v-1.221h.818c.159 0 .329.013.452.023v-.508a3.583 3.583 0 0 1-.435.018h-.835v-1.145h.859c.229 0 .424.005.534.018v-.484h-2.085v-.001Zm4.668 3.412v-1.346h.269c.624 0 .91.216.91.691 0 .433-.276.655-.823.655h-.356Zm0-1.787v-1.17h.306c.527 0 .763.169.763.561s-.27.608-.763.608h-.306Zm-.669-1.625c.022.133.04.333.04.582v2.724c0 .25-.018.456-.034.584h1.145c.352 0 .57-.034.787-.14.359-.168.577-.543.577-.974 0-.556-.335-.895-.924-.937.482-.081.794-.426.794-.887a.883.883 0 0 0-.301-.678c-.241-.204-.54-.274-1.209-.274h-.875Zm3.808 1.646v-1.19l.054-.008h.199c.593 0 .822.16.822.568 0 .408-.27.63-.751.63h-.324Zm-.681-1.646c.021.133.04.333.04.582v2.724c0 .257-.019.456-.04.584h.716a3.168 3.168 0 0 1-.029-.584v-1.198h.25c.443 0 .547.099.731.702l.185.626c.078.238.107.373.12.454h.715a1.354 1.354 0 0 1-.094-.238l-.059-.177-.053-.162-.223-.702c-.153-.49-.318-.668-.67-.743.529-.146.799-.455.799-.916a.868.868 0 0 0-.447-.785c-.216-.123-.469-.168-.867-.168h-1.074Zm3.245 0c.023.133.042.333.042.582v2.724c0 .257-.019.456-.036.584h.723a3.635 3.635 0 0 1-.042-.59v-2.718c0-.232.019-.46.042-.582h-.729Zm2.239.467v2.839c0 .25-.017.461-.035.584h.722a3.01 3.01 0 0 1-.042-.584v-2.84h.588c.175 0 .341.006.464.014l.054.005v-.484h-2.855v.484c.094-.013.247-.018.511-.018h.593Zm2.157-.467c.023.133.039.333.039.582v2.724c0 .257-.016.456-.034.584h.723a3.526 3.526 0 0 1-.041-.59v-2.718c0-.232.018-.46.041-.582h-.728Zm1.327 3.803c.353.11.681.17 1.004.17.839 0 1.386-.474 1.386-1.197 0-.172-.035-.328-.099-.462-.13-.258-.354-.445-.846-.708-.611-.333-.747-.456-.747-.719 0-.305.283-.525.671-.525.201 0 .358.04.634.152l.124-.49a2.825 2.825 0 0 0-.811-.13c-.746 0-1.261.44-1.261 1.082 0 .18.045.35.127.49.13.222.348.386.824.636.581.316.745.485.745.783 0 .368-.315.608-.804.608-.282 0-.505-.053-.815-.204l-.132.514Zm2.819-3.803c.023.133.04.333.04.582v2.724c0 .257-.017.456-.035.584h.722a3.805 3.805 0 0 1-.04-.584v-1.214l.053-.005c.216-.013.471-.02.705-.02.294 0 .721.013.88.025v1.214c0 .257-.011.469-.034.584h.721a4.01 4.01 0 0 1-.034-.59v-2.718c0-.243.013-.454.034-.582h-.721c.023.122.034.333.034.582V99.6h-.047c-.083-.007-.211-.007-.393-.012h-.77c-.181.005-.311.005-.381.005h-.047v-1.018c0-.232.018-.46.04-.582h-.727ZM53.824 67.672c.892 0 7.321 6.26 7.767 6.588 7.077 5.443 7.337 5.743 7.337 6.731V94.31l-7.48 7.876 6.468 6.443H57.344s-5.964-5.495-5.964-5.726v-15.61c0-1.933 1.912-3.292 3.163-3.292 1.827 0 3.453 1.358 3.453 2.72v8.019c.864-.286 4.603-4.338 4.603-4.582V83.57c0-.243-3.122-3.537-7.911-8.307-2.474-2.463-3.165-2.821-3.165-4.868-.001-1.433.92-2.722 2.301-2.722Z"/><path d="M50.516 75.978c2.115 0 3.884 1.791 3.884 3.868 0 2.033-1.597 3.866-4.027 3.866-2.114 0-3.884-1.79-3.884-3.866 0-2.034 1.597-3.868 4.027-3.868Z"/><path d="M2.617 67.529h44.734c1.179 0 2.589.973 2.589 2.72 0 2.692-3.063 4.626-8.63 10.168-2.95 2.936-2.877 2.808-2.877 3.151v6.444c0 .187 3.064 3.709 4.602 4.725v-7.445c0-1.906 1.785-3.293 3.31-3.293 1.093 0 3.307 1.188 3.307 2.719v16.327l-5.61 5.584H32.968c-.661-1.674-3.667-3.178-4.314-3.007h-.433c-.013-.099-1.151-2.148-1.151-2.148h-1.582c-1.625 0-.402-1.719-3.02-1.862 0-1.933-2.401-4.783-2.444-5.012-.043-.202.445-.73-.144-2.721-.806-2.72-4.171-4.87-4.171-6.015v-1.146c0-.816.862-1.318 1.006-1.432v-3.437c0-1.718-3.596-1.29-3.596-4.582 0-2.264-4.573-7.662-4.603-8.308h-.575c-1.121 1.604-.36.358-1.726 1.72H4.92c-.173-1.303-.26-1.116-2.303-3.15Z"/><path d="M13.263 85.287c.387.645.273.2.143.86 1.05-.087.503-.172 1.006.286-.287 1.117-.316 2.005-1.294 2.005-.388 0-1.338-.758-1.725-2.148.977-.258 1.294-.43 1.87-1.003Zm.719 3.438c.59.342.762.514 1.295.715-.245.314-.432.473-.432.716 0 .415.576.945.576 1.145 0 0-.158.287-.287.572-.173-.172-1.9-2.004-2.158-2.146.603-.472.444-.3 1.006-1.002Zm7.911 14.033h.863c1.683 1.675 3.553 1.562 3.74 1.719 0 0 .992 1.861 2.302 2.719.517.345 1.02-.157 2.3.718.706.485-.215.514.863 1.288v1.289a3.886 3.886 0 0 0-1.15 0c-.906-1.162-1.079-.072-1.438-1.432-.503.027-.273.027-.718 0-.433-.087-2.159-.976-2.159-2.148-.92-.115-2.444-.501-2.444-1.432v-.43c-2.002.002-1.685-.873-2.159-2.291Z"/></g><defs><clipPath id="a"><path fill="#fff" d="M0 0h178v178H0z"/></clipPath></defs></svg>