<svg width="144" height="144" viewBox="0 0 144 144" fill="none" xmlns="http://www.w3.org/2000/svg"><g clip-path="url(#a)"><path fill-rule="evenodd" clip-rule="evenodd" d="M34.608 73.446c-3.748 1.267-6.479 2.623-8.229 4.087-1.999 1.732-2.998 3.873-2.998 6.426 0 1.767.446 3.141 1.356 4.159.91 1.017 2.142 1.517 3.677 1.517.874 0 1.803-.286 2.767-.857.981-.588 1.73-1.303 2.25-2.16.784-1.48 1.177-4.266 1.177-8.353v-4.82Zm34.051 2.87 4.732 5.897c2.595-4.794-.33-6.885-4.732-5.897ZM57.587 92.969c-3.354-1.424-5.214-3.49-5.938-5.88-1.291-4.26 1.384-8.43 4.361-11.233a23.31 23.31 0 0 1 1.904-1.601l-1.64-2.025c-2.974 1.718-5.355 3.503-7.139 5.357-1.797 1.84-2.696 4.112-2.696 6.804 0 3.3.952 6.02 2.868 8.13 1.878 2.163 4.495 3.246 7.826 3.246 4.83 0 9.54-3.426 12.624-6.898l-7.61-9.39c-1.324.999-4.576 3.89-4.04 5.658.16.525.809 1.082 2.116 1.636l-2.636 6.196Zm-4.645-39.946c0 2.327.476 4.262 1.428 5.817.912 1.61 2.445 3.625 4.613 6.02 2.789-1.732 4.825-3.532 6.08-5.385 1.217-1.826 1.825-3.68 1.825-5.587 0-2.272-.661-4.03-1.97-5.261-1.322-1.245-2.96-1.867-4.93-1.867-2.168 0-3.887.622-5.143 1.867-1.268 1.23-1.902 2.705-1.902 4.396Zm25.569 47.09H65.837c2.87-1.468 5.441-3.569 7.793-6.131l4.88 6.131Zm-31.43 0h-9.992c-.804-2.195-1.232-4.623-1.303-7.3-1.643 2.838-3.57 4.908-5.784 6.211-2.213 1.303-4.89 1.946-8.015 1.946-5.033 0-8.907-1.303-11.601-3.927-2.696-2.624-4.034-6.39-4.034-11.298 0-4.588 1.285-8.23 3.838-10.924 1.41-1.428 3.177-2.695 5.319-3.82 2.124-1.125 5.355-2.463 9.692-3.999 3.41-1.16 5.872-2.374 7.39-3.624 1.5-1.267 2.25-2.73 2.25-4.39 0-1.535-.411-2.731-1.25-3.57-.84-.838-2-1.25-3.48-1.25-1.572 0-2.839.572-3.785 1.732-.963 1.16-1.427 2.73-1.427 4.694v1.071H7.94c.304-3.963.875-6.89 1.731-8.781 3.178-6.57 9.782-9.853 19.814-9.853.424 0 .847.004 1.268.015l-.014-.012h21.512a13.01 13.01 0 0 0-2.164 1.616c-2.683 2.435-4.031 5.52-4.031 9.24 0 2.218.581 4.517 1.744 6.898 1.11 2.366 2.67 4.599 4.68 6.655l-4.918 3.165c-2.617 1.664-4.68 3.814-6.2 6.425-1.52 2.584-2.287 5.398-2.287 8.441 0 5.073 1.64 9.158 4.917 12.242.93.92 1.966 1.725 3.087 2.397Zm21.027-57.08h30.038l5.979 44.87h.214l6.229-44.87h27.078v57.08h-16.6V62.522l.107-4.498-.107-2.678-.214-.108-.75 3.535-.518 2.463-.446 2.356-6.211 36.519H94.915l-6.123-36.323c-.035-.108-.088-.446-.195-1.036a16.245 16.245 0 0 0-.322-1.624 52.054 52.054 0 0 1-.357-1.392 36.367 36.367 0 0 1-.5-2.249l-.554-2.356-.213.107v2.142l.213 5.676V98.74L78.15 87.962a34.573 34.573 0 0 0 1.972-3.817l.012.003c2.694-6.84.112-13.945-8.141-14.743-2.41-.233-5.145.3-7.804 1.339l-1.477-1.841c4.23-2.583 7.085-5.168 8.552-7.724 1.415-2.53 2.129-5.33 2.129-8.359 0-2.908-1.11-5.6-3.33-8.089a10.91 10.91 0 0 0-1.954-1.697Z" fill="#A586FF"/></g><defs><clipPath id="a"><path fill="#fff" d="M0 0h144v144H0z"/></clipPath></defs></svg>