<svg width="94" height="94" viewBox="0 0 94 94" fill="none" xmlns="http://www.w3.org/2000/svg"><g clip-path="url(#a)"><path d="M47 94c-.467 0-.932-.008-1.397-.022L55.21 67.58h13.218c2.32 0 4.868-1.783 5.661-3.962l10.42-28.624c1.706-4.686-.978-8.52-5.965-8.52h-18.34L44.818 68.756h-.006l-8.723 23.968C15.394 87.804 0 69.201 0 47 0 25.44 14.518 7.272 34.31 1.735l-9 24.739h-.002L10.345 67.58l9.96.001 12.725-34.93h7.486l-12.724 34.93 9.957.002 11.858-32.589c1.706-4.686-.978-8.52-5.96-8.52h-8.373L44.886.049A51.17 51.17 0 0 1 47 0c25.957 0 47 21.043 47 47S72.957 94 47 94Zm28.438-61.374h-7.484L57.473 61.382h7.484l10.48-28.756Z" fill="#A586FF"/></g><defs><clipPath id="a"><path fill="#fff" d="M0 0h94v94H0z"/></clipPath></defs></svg>