<svg width="146" height="146" viewBox="0 0 146 146" fill="none" xmlns="http://www.w3.org/2000/svg"><g clip-path="url(#a)" fill-rule="evenodd" clip-rule="evenodd" fill="#A586FF"><path d="M67.584 35.046c0 6.54-5.302 11.842-11.841 11.842-6.54 0-11.843-5.302-11.843-11.842 0-6.54 5.302-11.841 11.843-11.841 6.54 0 11.841 5.302 11.841 11.841ZM51.121 76.348c0 6.54-5.302 11.842-11.841 11.842-6.54 0-11.842-5.302-11.842-11.842 0-6.54 5.302-11.842 11.842-11.842 6.54 0 11.841 5.302 11.841 11.842Z"/><path d="M105.43 112.955 79.416 43.567h-13.43l-25.705 69.462H26.995v9.675h25.127l7.653-21.806h25.417l8.828 21.897h24.984v-9.84H105.43ZM65.12 87.179l7.22-22.383 8.087 22.383H65.12Z"/></g><defs><clipPath id="a"><path fill="#fff" d="M0 0h146v146H0z"/></clipPath></defs></svg>