<?xml version="1.0" encoding="utf-8"?><svg width="1346" height="452" viewBox="0 0 1346 452" xmlns="http://www.w3.org/2000/svg" xmlns:xlink="http://www.w3.org/1999/xlink"><view id="image-arrow-next" viewBox="1234 296 43 35"/><svg width="43" height="35" fill="none" viewBox="-1 -1 43 35" x="1234" y="296" xmlns="http://www.w3.org/2000/svg"><path d="M40.5 16.5H0m40.5 0s-5.5-1-10.5-6S25 1 25 1m15.5 15.5s-5.5 1-10.5 6-5 9.5-5 9.5" stroke="#F8F8F8" stroke-width="1.7"/></svg><view id="image-arrow-next-black" viewBox="1102 296 44 35"/><svg width="44" height="35" fill="none" viewBox="-1 -1 44 35" x="1102" y="296" xmlns="http://www.w3.org/2000/svg"><path d="M41 16.5H0m41 0s-5.568-1-10.63-6C25.31 5.5 25.31 1 25.31 1M41 16.5s-5.568 1-10.63 6c-5.061 5-5.061 9.5-5.061 9.5" stroke="#1E1E1E" stroke-width="1.7"/></svg><view id="image-arrow-prev" viewBox="1146 296 44 35"/><svg width="44" height="35" fill="none" viewBox="-1 -1 44 35" x="1146" y="296" xmlns="http://www.w3.org/2000/svg"><path d="M1 16.5h41m-41 0s5.568-1 10.63-6C16.69 5.5 16.69 1 16.69 1M1 16.5s5.568 1 10.63 6c5.061 5 5.061 9.5 5.061 9.5" stroke="#F8F8F8" stroke-width="1.7"/></svg><view id="image-arrow-prev-black" viewBox="1190 296 44 35"/><svg width="44" height="35" fill="none" viewBox="-1 -1 44 35" x="1190" y="296" xmlns="http://www.w3.org/2000/svg"><path d="M1 16.5h41m-41 0s5.568-1 10.63-6C16.69 5.5 16.69 1 16.69 1M1 16.5s5.568 1 10.63 6c5.061 5 5.061 9.5 5.061 9.5" stroke="#1E1E1E" stroke-width="1.7"/></svg><view id="image-burger-menu" viewBox="908 343 32 29"/><svg width="32" height="29" fill="none" viewBox="-1 -1 32 29" x="908" y="343" xmlns="http://www.w3.org/2000/svg"><path d="M1 1.5h28M1 13.5h28M1 25.5h28" stroke="#000" stroke-width="1.5" stroke-linecap="square"/></svg><view id="image-burger-menu-light" viewBox="940 343 32 29"/><svg width="32" height="29" fill="none" viewBox="-1 -1 32 29" x="940" y="343" xmlns="http://www.w3.org/2000/svg"><path d="M1 1.5h28M1 13.5h28M1 25.5h28" stroke="#F8F8F8" stroke-width="1.5" stroke-linecap="square"/></svg><view id="image-category-arrow" viewBox="995 343 22 15"/><svg width="22" height="15" fill="none" viewBox="-1 -1 22 15" x="995" y="343" xmlns="http://www.w3.org/2000/svg"><path d="M19 1l-9 10L1 1" stroke="#1E1E1E" stroke-width="1.5"/></svg><view id="image-category-minus" viewBox="1102 331 23 3"/><svg width="23" height="3" fill="none" viewBox="-1 -1 23 3" x="1102" y="331" xmlns="http://www.w3.org/2000/svg"><rect y="1" width="1" height="21" rx=".5" transform="rotate(-90 0 1)" fill="#1E1E1E"/></svg><view id="image-category-plus" viewBox="972 343 23 23"/><svg width="23" height="23" fill="none" viewBox="-1 -1 23 23" x="972" y="343" xmlns="http://www.w3.org/2000/svg"><rect x="10" width="1" height="21" rx=".5" fill="#1E1E1E"/><rect y="11" width="1" height="21" rx=".5" transform="rotate(-90 0 11)" fill="#1E1E1E"/></svg><view id="image-close-menu" viewBox="875 343 33 31"/><svg width="33" height="31" fill="none" viewBox="-1 -1 33 31" x="875" y="343" xmlns="http://www.w3.org/2000/svg"><path stroke="#F8F8F8" stroke-width="2" stroke-linecap="round" d="M2.809 27.267L28.88 1.197M2.142 1l26.07 26.07"/></svg><view id="image-cross-dark" viewBox="815 296 46 46"/><svg width="46" height="46" fill="none" viewBox="-1 -1 46 46" x="815" y="296" xmlns="http://www.w3.org/2000/svg"><path d="M22 0l2.085 19.915L44 22l-19.915 2.085L22 44l-2.085-19.915L0 22l19.915-2.085L22 0z" fill="#1E1E1E"/></svg><view id="image-cross-light" viewBox="861 296 46 46"/><svg width="46" height="46" fill="none" viewBox="-1 -1 46 46" x="861" y="296" xmlns="http://www.w3.org/2000/svg"><path d="M22 0l2.085 19.915L44 22l-19.915 2.085L22 44l-2.085-19.915L0 22l19.915-2.085L22 0z" fill="#F8F8F8"/></svg><view id="image-login-small-dark" viewBox="1277 296 34 35"/><svg width="34" height="35" fill="none" viewBox="-1 -1 34 35" x="1277" y="296" xmlns="http://www.w3.org/2000/svg"><circle cx="16" cy="12" r="4" fill="#1E1E1E"/><path d="M10 25c-1.105 0-2.026-.91-1.753-1.98a8.003 8.003 0 0115.506 0C24.026 24.09 23.105 25 22 25H10z" fill="#1E1E1E"/><rect x=".5" y=".5" width="31" height="32" rx="15.5" stroke="#1E1E1E"/></svg><view id="image-login-small-light" viewBox="1311 296 34 35"/><svg width="34" height="35" fill="none" viewBox="-1 -1 34 35" x="1311" y="296" xmlns="http://www.w3.org/2000/svg"><circle cx="16" cy="12" r="4" fill="#F8F8F8"/><path d="M10 25c-1.105 0-2.026-.91-1.753-1.98a8.003 8.003 0 0115.506 0C24.026 24.09 23.105 25 22 25H10z" fill="#F8F8F8"/><rect x=".5" y=".5" width="31" height="32" rx="15.5" stroke="#F8F8F8"/></svg><view id="image-logo" viewBox="0 0 1346 296"/><svg width="1346" height="296" fill="none" viewBox="-1 -1 1346 296" xmlns="http://www.w3.org/2000/svg"><path fill-rule="evenodd" clip-rule="evenodd" d="M819.239 0h1.076c0 1.444.478 2.768 1.435 3.972.956.962 2.152 1.324 3.586 1.083h161.398c1.435.24 2.63-.12 3.587-1.083.956-1.204 1.434-2.528 1.434-3.972h.717l3.587 31.051-1.076.361c-.956-6.258-4.065-11.313-9.325-15.164-5.021-3.852-10.64-5.777-16.857-5.777h-43.04c-3.347 0-6.216 1.203-8.607 3.61-2.152 2.167-3.228 4.935-3.228 8.305v246.603c0 5.536 2.032 10.23 6.097 14.081 4.065 3.852 8.847 5.777 14.346 5.777v1.083h-56.668v-1.083c5.499 0 10.281-2.046 14.346-6.138 4.304-4.092 6.456-8.665 6.456-13.72V22.386c0-3.37-1.195-6.138-3.586-8.305-2.152-2.407-4.902-3.61-8.25-3.61h-43.398c-6.456 0-12.194 2.046-17.215 6.138-5.022 3.851-8.011 8.785-8.967 14.803l-1.076-.36L819.239 0zM16.499 283.792c-4.544 3.611-10.043 5.416-16.499 5.416v.722h41.246v-.722c-2.87-.24-5.26-.963-7.173-2.166-1.674-1.204-3.109-2.768-4.304-4.694-.956-2.166-.956-4.934 0-8.304l31.92-120.594h56.669l31.921 121.677c.957 3.129.837 5.657-.358 7.582-.957 1.685-2.392 3.129-4.304 4.333-1.913.963-4.185 1.685-6.815 2.166v.722h107.873v-1.083c-5.499 0-10.282-1.685-14.346-5.055-4.065-3.37-6.098-7.702-6.098-12.998V22.386c0-3.37 1.076-6.138 3.228-8.305 2.391-2.407 5.261-3.61 8.608-3.61h94.328c3.348 0 6.097 1.203 8.249 3.61 2.391 2.167 3.587 4.935 3.587 8.305v246.603c0 5.777-2.032 10.591-6.097 14.442-4.065 3.611-8.847 5.416-14.347 5.416v1.083h56.31v-1.083c-5.26 0-10.042-1.564-14.346-4.694-4.065-3.369-6.098-7.702-6.098-12.998V26.357c0-5.777 2.033-10.59 6.098-14.442 4.065-3.851 8.847-5.777 14.346-5.777v-.722h-190.09v.722c5.738 0 10.52 1.926 14.346 5.777 4.065 3.851 6.097 8.545 6.097 14.081v244.076c0 5.536-2.032 10.11-6.097 13.72-4.044 3.353-8.798 5.038-14.262 5.055-4.543 0-8.369-.24-11.478-1.444-3.108-1.444-5.619-3.129-7.531-5.055-1.913-2.166-3.468-4.333-4.663-6.499-.956-2.407-1.674-4.573-2.152-6.499L98.632 19.497c-.717-2.888-.837-5.295-.359-7.221a339.643 339.643 0 011.794-6.86H79.982c1.673 5.536 3.347 11.554 5.02 18.053 1.914 6.258 2.153 12.276.718 18.053L25.824 268.989c-1.674 6.258-4.783 11.193-9.326 14.803zm100.425-135.397H62.766L90.024 44.049l26.9 104.346zM1153.91 288.847v1.083h41.25v-1.083c-2.63-.481-4.91-1.324-6.82-2.527-1.91-1.204-3.47-2.648-4.66-4.333-.96-1.685-1.08-3.972-.36-6.86l60.61-231.078 60.26 231.078c.96 3.37.84 5.897-.36 7.582-.96 1.685-2.39 3.009-4.3 3.972-1.92 1.203-4.19 1.925-6.82 2.166v1.083H1344v-1.083c-4.54 0-8.49-.842-11.84-2.527-3.1-1.685-5.73-3.611-7.89-5.777-1.91-2.167-3.34-4.333-4.3-6.499-.96-2.167-1.55-3.731-1.79-4.694l-65.64-249.853c-.72-2.648-.84-5.055-.36-7.221a57.219 57.219 0 001.8-6.86h-20.09a599.51 599.51 0 005.02 18.053c1.91 6.258 2.03 12.517.36 18.775l-59.54 226.745-1.07 3.249c-.72 2.167-2.04 4.454-3.95 6.861-1.67 2.407-4.18 4.693-7.53 6.86-3.35 1.925-7.77 2.888-13.27 2.888zM531.147 11.541C519.345 3.847 506.683 0 493.16 0c-13.524 0-26.186 3.847-37.988 11.54-11.802 7.695-22.129 18.243-30.98 31.645-8.852 13.154-15.859 28.666-21.023 46.536-5.163 17.869-7.745 36.856-7.745 56.959 0 20.352 2.582 39.462 7.745 57.332 5.164 17.622 12.171 33.133 21.023 46.536 8.851 13.154 19.178 23.578 30.98 31.272 11.802 7.693 24.464 11.54 37.988 11.54 13.523 0 26.185-3.847 37.987-11.54 12.048-7.694 22.498-18.118 31.349-31.272 8.852-13.403 15.736-28.914 20.654-46.536 5.163-17.87 7.745-36.98 7.745-57.332 0-20.103-2.582-39.09-7.745-56.96-4.918-17.869-11.802-33.38-20.654-46.535-8.851-13.402-19.301-23.95-31.349-31.644zm-6.638 265.439c-9.59 7.446-20.039 11.168-31.349 11.168-11.311 0-21.76-3.722-31.349-11.168-9.59-7.446-17.949-17.498-25.08-30.155-7.13-12.906-12.785-27.922-16.965-45.047-3.934-17.125-5.901-35.491-5.901-55.098s1.967-37.973 5.901-55.098c4.18-17.125 9.835-32.016 16.965-44.674 7.131-12.906 15.49-23.082 25.08-30.527C471.4 8.935 481.849 5.212 493.16 5.212c11.31 0 21.759 3.723 31.349 11.169 9.835 7.445 18.194 17.621 25.079 30.527 7.13 12.658 12.662 27.549 16.596 44.674 4.18 17.125 6.27 35.491 6.27 55.098s-2.09 37.973-6.27 55.098c-3.934 17.125-9.466 32.141-16.596 45.047-6.885 12.657-15.244 22.709-25.079 30.155zM1078.67 0c13.53 0 26.19 3.847 37.99 11.54 12.05 7.695 22.5 18.243 31.35 31.645 8.85 13.154 15.74 28.666 20.65 46.536 5.17 17.869 7.75 36.856 7.75 56.959 0 20.352-2.58 39.462-7.75 57.332-4.91 17.622-11.8 33.133-20.65 46.536-8.85 13.154-19.3 23.578-31.35 31.272-11.8 7.693-24.46 11.54-37.99 11.54-13.52 0-26.18-3.847-37.98-11.54-11.81-7.694-22.13-18.118-30.98-31.272-8.85-13.403-15.862-28.914-21.026-46.536-5.163-17.87-7.745-36.98-7.745-57.332 0-20.103 2.582-39.09 7.745-56.96 5.164-17.869 12.176-33.38 21.026-46.535 8.85-13.402 19.17-23.95 30.98-31.644C1052.49 3.847 1065.15 0 1078.67 0zm0 288.148c11.31 0 21.76-3.722 31.35-11.168 9.84-7.446 18.2-17.498 25.08-30.155 7.13-12.906 12.67-27.922 16.6-45.047 4.18-17.125 6.27-35.491 6.27-55.098s-2.09-37.973-6.27-55.098c-3.93-17.125-9.47-32.016-16.6-44.674-6.88-12.906-15.24-23.082-25.08-30.527-9.59-7.446-20.04-11.169-31.35-11.169-11.31 0-21.76 3.723-31.34 11.169-9.59 7.445-17.95 17.621-25.08 30.527-7.13 12.658-12.79 27.549-16.97 44.674-3.93 17.125-5.9 35.491-5.9 55.098s1.97 37.973 5.9 55.098c4.18 17.125 9.84 32.141 16.97 45.047 7.13 12.657 15.49 22.709 25.08 30.155 9.58 7.446 20.03 11.168 31.34 11.168zM615.105 149.42c0-19.971 3.154-38.603 9.464-55.895 6.31-17.536 14.925-32.758 25.846-45.667 10.921-13.152 23.662-23.503 38.223-31.053 14.561-7.55 30.093-11.325 46.595-11.325h24.754c1.941 0 3.397-.487 4.368-1.461.971-1.218 1.456-2.558 1.456-4.019h1.092l28.03 31.418-.728.366c-4.368-4.628-8.858-8.281-13.469-10.96-4.368-2.923-8.615-5.115-12.741-6.576-4.125-1.461-8.008-2.436-11.648-2.923-3.641-.487-6.796-.73-9.465-.73h-4.732c-15.29 0-29.729 3.653-43.319 10.96-13.591 7.306-25.361 17.292-35.311 29.957-9.95 12.42-17.959 27.034-24.026 43.84-5.824 16.804-8.736 34.827-8.736 54.068s2.912 37.264 8.736 54.069c5.825 16.805 13.712 31.54 23.662 44.205 10.193 12.421 22.084 22.285 35.675 29.592 13.59 7.306 28.029 10.96 43.319 10.96 38.574 0 72.075-21.758 92.219-53.978 5.951-9.518 12.197-25.338 13.394-28.822 1.197-3.485 2.068-7.405 2.614-11.762.547-4.356.496-9.148-.15-14.377-.322-5.338-1.565-11.002-3.731-16.995l.652-.49 15.433 39.225-.489.98c-1.302-.655-2.713-.819-4.233-.494-1.302.435-2.389 1.523-3.258 3.265 0 0-8.088 18.618-13.862 28.1-23.849 39.168-60.117 60.462-106.598 60.462-10.952 0-31.67-3.775-46.231-11.325-14.561-7.55-27.181-17.779-37.859-30.688-10.678-13.151-19.172-28.374-25.482-45.666-6.31-17.536-9.464-36.289-9.464-56.261z" fill="#1E1E1E"/></svg><view id="image-logo-light" viewBox="0 296 711 156"/><svg width="711" height="156" fill="none" viewBox="-1 -1 711 156" y="296" xmlns="http://www.w3.org/2000/svg"><path fill-rule="evenodd" clip-rule="evenodd" d="M431.807 0h.567c0 .758.252 1.453.757 2.085.504.505 1.134.695 1.89.569h85.07c.756.126 1.386-.064 1.891-.57.504-.63.756-1.326.756-2.084h.378l1.89 16.3-.567.19c-.504-3.285-2.142-5.939-4.915-7.96-2.647-2.023-5.608-3.033-8.885-3.033h-22.686c-1.764 0-3.276.631-4.537 1.895-1.134 1.137-1.701 2.59-1.701 4.36v129.454c0 2.906 1.071 5.37 3.214 7.392 2.142 2.022 4.663 3.033 7.562 3.033v.568h-29.87v-.568c2.899 0 5.42-1.074 7.562-3.222 2.269-2.148 3.403-4.549 3.403-7.203V11.751c0-1.769-.63-3.222-1.89-4.359-1.135-1.264-2.584-1.895-4.348-1.895h-22.875c-3.403 0-6.427 1.074-9.074 3.222-2.647 2.022-4.222 4.612-4.726 7.77l-.567-.189L431.807 0zM8.697 148.977C6.3 150.873 3.402 151.82 0 151.82v.379h21.74v-.379c-1.512-.126-2.772-.505-3.78-1.137-.883-.632-1.64-1.453-2.27-2.464-.503-1.137-.503-2.59 0-4.359l16.826-63.306h29.869l16.825 63.874c.504 1.643.44 2.97-.19 3.981-.504.884-1.26 1.642-2.268 2.274-1.008.506-2.205.885-3.592 1.137v.379H130.018v-.568c-2.898 0-5.419-.885-7.561-2.654-2.143-1.769-3.214-4.043-3.214-6.823V11.751c0-1.769.567-3.222 1.701-4.359 1.26-1.264 2.773-1.895 4.537-1.895H175.2c1.764 0 3.214.631 4.348 1.895 1.26 1.137 1.89 2.59 1.89 4.36v129.454c0 3.033-1.071 5.56-3.213 7.582-2.143 1.895-4.663 2.843-7.562 2.843v.568h29.68v-.568c-2.773 0-5.293-.822-7.562-2.464-2.142-1.769-3.214-4.044-3.214-6.824V13.836c0-3.032 1.072-5.56 3.214-7.581 2.143-2.022 4.663-3.033 7.562-3.033v-.379H100.149v.38c3.025 0 5.546 1.01 7.562 3.032 2.143 2.022 3.214 4.486 3.214 7.392v128.128c0 2.906-1.071 5.307-3.214 7.202-2.132 1.76-4.637 2.645-7.517 2.654-2.395 0-4.411-.127-6.05-.758-1.638-.759-2.962-1.643-3.97-2.654-1.008-1.137-1.827-2.274-2.457-3.412-.504-1.263-.882-2.4-1.135-3.411L51.987 10.236c-.378-1.517-.44-2.78-.189-3.792.252-1.01.567-2.211.945-3.6H42.157a237.246 237.246 0 012.647 9.476c1.008 3.285 1.134 6.444.378 9.477l-31.57 119.409c-.883 3.285-2.521 5.876-4.916 7.771zM61.627 77.9H33.084L47.45 23.124 61.628 77.9zm546.578 73.731v.568h21.741v-.568c-1.387-.253-2.584-.695-3.592-1.327s-1.828-1.39-2.458-2.274c-.504-.885-.567-2.085-.189-3.602l31.949-121.304 31.759 121.304c.504 1.769.441 3.096-.189 3.981-.504.884-1.26 1.579-2.268 2.085-1.009.631-2.206 1.01-3.592 1.137v.568H708.4v-.568c-2.395 0-4.474-.442-6.238-1.327-1.639-.884-3.025-1.895-4.159-3.033-1.009-1.137-1.765-2.274-2.269-3.411-.504-1.138-.819-1.959-.945-2.464l-34.595-131.16c-.378-1.39-.441-2.654-.189-3.792.378-1.137.693-2.337.945-3.6h-10.587a304.57 304.57 0 002.647 9.476c1.008 3.285 1.071 6.57.189 9.856l-31.381 119.03-.568 1.706c-.378 1.137-1.071 2.338-2.079 3.601-.882 1.264-2.206 2.464-3.97 3.601-1.764 1.011-4.096 1.517-6.995 1.517zM279.959 6.058C273.738 2.02 267.064 0 259.936 0s-13.802 2.02-20.022 6.058c-6.221 4.04-11.664 9.576-16.33 16.612-4.665 6.905-8.359 15.048-11.08 24.429-2.722 9.38-4.082 19.348-4.082 29.901 0 10.684 1.36 20.716 4.082 30.096 2.721 9.251 6.415 17.394 11.08 24.429 4.666 6.906 10.109 12.378 16.33 16.417 6.22 4.039 12.894 6.058 20.022 6.058 7.128 0 13.802-2.019 20.023-6.058 6.35-4.039 11.858-9.511 16.523-16.417 4.666-7.035 8.295-15.178 10.887-24.429 2.721-9.38 4.082-19.412 4.082-30.096 0-10.553-1.361-20.52-4.082-29.901-2.592-9.38-6.221-17.524-10.887-24.429-4.665-7.036-10.173-12.573-16.523-16.612zm-3.499 139.343c-5.055 3.909-10.562 5.863-16.524 5.863-5.961 0-11.469-1.954-16.523-5.863-5.055-3.909-9.461-9.185-13.219-15.83-3.758-6.775-6.739-14.657-8.942-23.647-2.074-8.99-3.111-18.631-3.111-28.924s1.037-19.934 3.111-28.924c2.203-8.99 5.184-16.807 8.942-23.452 3.758-6.775 8.164-12.116 13.219-16.025 5.054-3.909 10.562-5.863 16.523-5.863 5.962 0 11.469 1.954 16.524 5.863 5.184 3.909 9.59 9.25 13.219 16.025 3.758 6.645 6.674 14.462 8.747 23.452 2.204 8.99 3.305 18.631 3.305 28.924s-1.101 19.934-3.305 28.924c-2.073 8.99-4.989 16.872-8.747 23.647-3.629 6.645-8.035 11.921-13.219 15.83zM568.551 0c7.128 0 13.802 2.02 20.023 6.058 6.35 4.04 11.858 9.576 16.524 16.612 4.665 6.905 8.294 15.048 10.886 24.429 2.721 9.38 4.082 19.348 4.082 29.901 0 10.684-1.361 20.716-4.082 30.096-2.592 9.251-6.221 17.394-10.886 24.429-4.666 6.906-10.174 12.378-16.524 16.417-6.221 4.039-12.895 6.058-20.023 6.058-7.127 0-13.802-2.019-20.022-6.058-6.221-4.039-11.664-9.511-16.329-16.417-4.666-7.035-8.359-15.178-11.081-24.429-2.721-9.38-4.082-19.412-4.082-30.096 0-10.553 1.361-20.52 4.082-29.901 2.722-9.38 6.415-17.524 11.081-24.429 4.665-7.036 10.108-12.573 16.329-16.612C554.749 2.02 561.424 0 568.551 0zm0 151.264c5.962 0 11.47-1.954 16.524-5.863 5.184-3.909 9.59-9.185 13.219-15.83 3.758-6.775 6.674-14.657 8.748-23.647 2.203-8.99 3.304-18.631 3.304-28.924s-1.101-19.934-3.304-28.924c-2.074-8.99-4.99-16.807-8.748-23.452-3.629-6.775-8.035-12.116-13.219-16.025-5.054-3.909-10.562-5.863-16.524-5.863-5.961 0-11.469 1.954-16.523 5.863-5.054 3.909-9.461 9.25-13.219 16.025-3.758 6.645-6.739 14.462-8.942 23.452-2.074 8.99-3.11 18.631-3.11 28.924s1.036 19.934 3.11 28.924c2.203 8.99 5.184 16.872 8.942 23.647 3.758 6.645 8.165 11.921 13.219 15.83 5.054 3.909 10.562 5.863 16.523 5.863zm-244.34-72.826c0-10.484 1.663-20.265 4.989-29.342 3.326-9.206 7.867-17.196 13.623-23.973 5.756-6.904 12.472-12.338 20.146-16.301 7.675-3.964 15.862-5.945 24.56-5.945h13.047c1.024 0 1.791-.256 2.303-.767.512-.64.767-1.343.767-2.11h.576l14.774 16.493-.384.192c-2.302-2.43-4.668-4.347-7.099-5.753-2.302-1.535-4.541-2.685-6.715-3.453-2.175-.767-4.222-1.278-6.14-1.534-1.919-.256-3.582-.383-4.989-.383h-2.494c-8.059 0-15.67 1.917-22.833 5.753-7.163 3.836-13.367 9.078-18.612 15.726-5.244 6.52-9.465 14.192-12.663 23.014-3.07 8.822-4.605 18.283-4.605 28.383 0 10.1 1.535 19.562 4.605 28.384 3.07 8.822 7.227 16.557 12.471 23.205 5.373 6.521 11.641 11.699 18.804 15.535 7.163 3.835 14.774 5.753 22.833 5.753 20.332 0 37.989-11.422 48.607-28.336 3.137-4.996 6.429-13.301 7.06-15.13.63-1.829 1.09-3.887 1.378-6.174.288-2.287.261-4.803-.08-7.548-.169-2.801-.824-5.775-1.966-8.921l.344-.257 8.134 20.591-.258.514c-.686-.343-1.43-.43-2.231-.259-.686.228-1.259.799-1.717 1.714 0 0-4.263 9.773-7.306 14.751-12.571 20.562-31.687 31.74-56.186 31.74-5.773 0-16.693-1.982-24.368-5.945-7.675-3.964-14.327-9.334-19.955-16.11-5.628-6.904-10.105-14.895-13.431-23.972-3.326-9.206-4.989-19.05-4.989-29.535z" fill="#F8F8F8"/></svg><view id="image-num-1" viewBox="961 296 27 45"/><svg width="27" height="45" fill="none" viewBox="-1 -1 27 45" x="961" y="296" xmlns="http://www.w3.org/2000/svg"><path d="M1.674 42.766c.782 0 1.434-.156 1.955-.468a7.362 7.362 0 001.329-1.171c.364-.417.625-.86.781-1.327.209-.469.339-.807.391-1.015l5.003-18.89c.104-.26.156-.599.156-1.015 0-.468-.052-.91-.156-1.327L9.726 12.4h4.456c-.261.885-.417 1.51-.47 1.873 0 .365.079.833.235 1.405l6.02 22.872c.26 1.145.755 2.133 1.484 2.966.782.832 1.798 1.249 3.049 1.249V43H14.494v-.234c.574-.052 1.069-.208 1.486-.468a2.27 2.27 0 00.86-.86c.26-.364.312-.91.156-1.638l-2.267-8.43h-5.55L6.912 39.8c-.157.728-.13 1.3.078 1.717.26.416.6.728 1.016.937.417.208.912.312 1.485.312V43H1.674v-.234zm12.82-12.49l-2.501-9.523-2.502 9.523h5.003zM23.023.976a7.042 7.042 0 01-2.132 2.684 7.96 7.96 0 01-2.871 1.354c-1.076.258-2.19.338-3.295.239a17.369 17.369 0 01-3.399-.632A44.017 44.017 0 018.64 3.72a11.168 11.168 0 00-2.735-.672 5.435 5.435 0 00-2.504.289 4.341 4.341 0 00-2.086 1.967L.5 4.513a7.525 7.525 0 012.132-2.707A8.167 8.167 0 015.504.353C6.574.063 7.688-.049 8.799.02c1.147.065 2.283.257 3.384.573.913.274 1.81.595 2.688.96a11.3 11.3 0 002.735.767 5.44 5.44 0 002.504-.194c.772-.252 1.464-.902 2.085-1.917l.828.767z" fill="#1E1E1E"/></svg><view id="image-num-10" viewBox="907 296 27 46"/><svg width="27" height="46" fill="none" viewBox="-1 -1 27 46" x="907" y="296" xmlns="http://www.w3.org/2000/svg"><path fill-rule="evenodd" clip-rule="evenodd" d="M21.159 3.393a6.554 6.554 0 002.02-2.488l-.784-.711c-.59.94-1.245 1.543-1.976 1.777a5.265 5.265 0 01-2.373.18c-.894-.13-1.765-.369-2.592-.71a26.559 26.559 0 00-2.547-.892A14.958 14.958 0 009.7.02a9.876 9.876 0 00-3.122.309c-.996.27-1.921.729-2.721 1.346a7.001 7.001 0 00-2.02 2.51l.77.732a4.078 4.078 0 011.977-1.824 5.257 5.257 0 012.373-.267c.889.1 1.76.31 2.591.623.877.318 1.726.596 2.547.836 1.05.3 2.128.496 3.22.586a9.895 9.895 0 003.123-.222 7.618 7.618 0 002.72-1.255zM16.292 37.85H7.785a15.42 15.42 0 01-.173-.397c-.56-1.393-1.017-2.975-1.373-4.743a34.524 34.524 0 01-.458-5.71c0-2.036.153-3.939.458-5.708.356-1.822.814-3.403 1.373-4.743.56-1.34 1.221-2.386 1.984-3.136.763-.804 1.577-1.206 2.442-1.206.865 0 1.679.402 2.442 1.206.763.75 1.424 1.796 1.984 3.136s.992 2.92 1.297 4.743c.356 1.77.534 3.672.534 5.709 0 1.983-.178 3.886-.534 5.709-.305 1.768-.738 3.35-1.297 4.743-.056.135-.114.268-.172.397zm2.62 0c.755-1.354 1.363-2.907 1.825-4.658.509-1.983.763-4.047.763-6.191 0-2.198-.254-4.261-.763-6.191-.509-1.93-1.195-3.618-2.06-5.065-.814-1.448-1.806-2.6-2.976-3.458C14.58 11.43 13.36 11 12.038 11c-1.322 0-2.569.429-3.739 1.286-1.119.858-2.11 2.01-2.976 3.458-.865 1.447-1.551 3.135-2.06 5.065-.509 1.93-.763 3.993-.763 6.19 0 2.145.254 4.209.763 6.192.462 1.751 1.07 3.304 1.825 4.658H.5V44h2.852a11.325 11.325 0 01-.222-1.592c0-.579.074-1.134.222-1.664.148-.531.395-.99.74-1.375.392-.335.93-.504 1.612-.507.772 1.167 1.637 2.117 2.595 2.852C9.47 42.57 10.716 43 12.04 43c1.322 0 2.543-.429 3.662-1.286 1.002-.735 1.873-1.685 2.613-2.852h.964c.74 0 1.284.17 1.63.507.345.386.592.82.74 1.302.148.531.198 1.086.148 1.665-.05.627-.123 1.182-.222 1.664H24.5v-6.15h-5.588zm-3.13 1.013H8.295c.395.705.829 1.307 1.302 1.806.763.75 1.577 1.126 2.442 1.126.865 0 1.679-.375 2.442-1.126.473-.499.908-1.1 1.303-1.806z" fill="#1e1e1e"/></svg><view id="image-num-11" viewBox="934 296 27 46"/><svg width="27" height="46" fill="none" viewBox="-1 -1 27 46" x="934" y="296" xmlns="http://www.w3.org/2000/svg"><path fill-rule="evenodd" clip-rule="evenodd" d="M22.228 3.81A7.362 7.362 0 0024.5 1.016l-.883-.798c-.662 1.056-1.4 1.732-2.222 1.995a5.929 5.929 0 01-2.668.202 12.262 12.262 0 01-2.914-.798 29.895 29.895 0 00-2.864-1A16.844 16.844 0 009.343.02a11.121 11.121 0 00-3.511.348 8.782 8.782 0 00-3.06 1.512A7.863 7.863 0 00.5 4.697l.868.822A4.583 4.583 0 013.59 3.472a5.92 5.92 0 012.668-.3c1 .112 1.98.347 2.914.699.986.357 1.941.67 2.864.94a18.9 18.9 0 003.621.657c1.177.103 2.364.019 3.511-.25a8.572 8.572 0 003.06-1.408zM17.5 13.158V13h-10v.158c.615.053 1.18.211 1.692.475.41.263.77.606 1.077 1.028.36.421.539 1.028.539 1.819v24.278c0 .738-.18 1.291-.539 1.66a3.443 3.443 0 01-1.077.87 4.506 4.506 0 01-1.692.475V44h10v-.237a4.506 4.506 0 01-1.692-.475 5.253 5.253 0 01-1.154-1.028c-.308-.422-.487-1.028-.539-1.819V16.48c.052-.791.231-1.398.539-1.82a5.252 5.252 0 011.154-1.027 4.502 4.502 0 011.692-.475z" fill="#F8F8F8"/></svg><view id="image-num-12" viewBox="988 296 39 45"/><svg width="39" height="45" fill="none" viewBox="-1 -1 39 45" x="988" y="296" xmlns="http://www.w3.org/2000/svg"><path d="M36.413 12v.158c-.616.053-1.18.211-1.693.475-.41.263-.795.606-1.154 1.028-.307.421-.487 1.028-.538 1.819V39.44c.051.791.23 1.397.538 1.82.36.421.744.764 1.154 1.027a4.506 4.506 0 001.693.475V43h-10v-.237a4.506 4.506 0 001.692-.475c.41-.21.77-.5 1.077-.87.359-.369.538-.922.538-1.66V15.48c0-.791-.18-1.398-.538-1.82a4.021 4.021 0 00-1.077-1.027 4.502 4.502 0 00-1.692-.475V12h10zM.587 42.766c.782 0 1.433-.156 1.954-.468a7.362 7.362 0 001.33-1.171c.364-.417.625-.86.781-1.327.208-.469.339-.807.39-1.015l5.004-18.89c.104-.26.156-.599.156-1.015 0-.468-.052-.91-.156-1.327L8.639 12.4h4.455c-.26.885-.417 1.51-.469 1.873 0 .365.078.833.235 1.405l6.019 22.872c.26 1.145.755 2.133 1.485 2.966.782.832 1.798 1.249 3.049 1.249V43H13.407v-.234c.573-.052 1.068-.208 1.485-.468a2.27 2.27 0 00.86-.86c.26-.363.313-.91.156-1.638l-2.266-8.43h-5.55L5.824 39.8c-.157.728-.13 1.3.078 1.717.26.416.599.728 1.016.937.417.208.912.312 1.485.312V43H.587v-.234zm12.82-12.49l-2.502-9.523-2.5 9.523h5.002zM31.936.976a7.043 7.043 0 01-2.132 2.684 7.96 7.96 0 01-2.871 1.354c-1.077.258-2.191.338-3.296.239a17.369 17.369 0 01-3.398-.632 44.037 44.037 0 01-2.688-.902 11.167 11.167 0 00-2.735-.672 5.435 5.435 0 00-2.504.289 4.342 4.342 0 00-2.085 1.967l-.814-.79a7.525 7.525 0 012.132-2.707A8.166 8.166 0 0114.416.353c1.07-.29 2.185-.402 3.295-.333 1.148.065 2.283.257 3.385.573.913.274 1.81.595 2.687.96.873.37 1.793.627 2.735.767a5.44 5.44 0 002.504-.194c.772-.252 1.464-.902 2.086-1.917l.828.767z" fill="#F8F8F8"/></svg><view id="image-num-2" viewBox="1027 296 25 45"/><svg width="25" height="45" fill="none" viewBox="-1 -1 25 45" x="1027" y="296" xmlns="http://www.w3.org/2000/svg"><path d="M1.894 42.844l.452-.078a5.277 5.277 0 001.13-.312c.453-.209.83-.495 1.131-.86.352-.363.528-.884.528-1.56V15.367c0-.676-.176-1.197-.528-1.561a3.376 3.376 0 00-1.055-.859 5.555 5.555 0 00-1.658-.39v-.156h10.025c1.056 0 2.06.208 3.015.624a7.174 7.174 0 012.488 1.796 7.433 7.433 0 011.734 2.576c.402.936.603 1.951.603 3.044 0 1.457-.352 2.758-1.056 3.903a8.623 8.623 0 01-2.789 2.81c1.96.208 3.618 1.067 4.975 2.576C22.297 31.187 23 32.956 23 35.038a8.212 8.212 0 01-.603 3.122 7.436 7.436 0 01-1.734 2.576 8.385 8.385 0 01-2.487 1.64A7.464 7.464 0 0115.16 43H1.894v-.156zM8.376 16.07V39.33c0 .729.226 1.353.679 1.874a2.56 2.56 0 001.809.702h4.146c1.306 0 2.412-.65 3.316-1.951.955-1.353 1.433-2.992 1.433-4.918 0-.937-.126-1.795-.377-2.576-.201-.833-.528-1.561-.98-2.186-.402-.624-.88-1.118-1.432-1.483-.553-.364-1.131-.546-1.734-.546h-3.618v-1.093c1.306 0 2.437-.65 3.392-1.951.954-1.301 1.432-2.889 1.432-4.762 0-1.873-.452-3.487-1.357-4.84-.904-1.405-2.01-2.107-3.317-2.107h-.904c-.704 0-1.307.26-1.81.78-.452.469-.678 1.067-.678 1.796zM21.72.976a7.006 7.006 0 01-2.057 2.684 7.558 7.558 0 01-2.768 1.354 9.515 9.515 0 01-3.178.239 16.215 16.215 0 01-3.277-.632 41.41 41.41 0 01-2.592-.902 10.455 10.455 0 00-2.637-.672 5.067 5.067 0 00-2.415.289 4.255 4.255 0 00-2.01 1.967L0 4.513a7.49 7.49 0 012.056-2.707A7.773 7.773 0 014.826.353 9.505 9.505 0 018.001.02c1.107.065 2.202.257 3.264.573.88.274 1.746.595 2.592.96.842.37 1.728.627 2.637.767a5.068 5.068 0 002.415-.194c.744-.252 1.412-.902 2.01-1.917l.8.767z" fill="#F8F8F8"/></svg><view id="image-num-4" viewBox="1052 296 25 45"/><svg width="25" height="45" fill="none" viewBox="-1 -1 25 45" x="1052" y="296" xmlns="http://www.w3.org/2000/svg"><path d="M1.145 43v-.234a4.858 4.858 0 001.756-.468c.426-.26.825-.599 1.198-1.015.372-.417.558-1.015.558-1.796v-24.12c0-.728-.186-1.275-.558-1.64-.373-.415-.772-.702-1.198-.858a6.222 6.222 0 00-1.756-.234v-.234h18.04c.266 0 .506-.104.719-.312.266-.26.399-.52.399-.78h.16l.718 6.712h-.16c-.213-1.3-.904-2.368-2.075-3.2-1.118-.885-2.368-1.327-3.752-1.327h-4.47c-.745 0-1.384.26-1.916.78-.479.469-.718 1.067-.718 1.796v23.417c0 .78.186 1.38.559 1.796.372.416.771.754 1.197 1.014.479.26 1.038.417 1.676.469V43H1.145zM23 .976a7.07 7.07 0 01-2.177 2.684 8.206 8.206 0 01-2.933 1.354c-1.099.258-2.236.338-3.364.239a18.072 18.072 0 01-3.47-.632A45.6 45.6 0 018.31 3.72a11.603 11.603 0 00-2.793-.672 5.66 5.66 0 00-2.557.289A4.396 4.396 0 00.83 5.303L0 4.513a7.551 7.551 0 012.177-2.707A8.407 8.407 0 015.11.353 10.632 10.632 0 018.474.02c1.172.065 2.332.257 3.456.573a28.59 28.59 0 012.745.96c.891.37 1.83.627 2.793.767a5.668 5.668 0 002.557-.194c.788-.252 1.495-.902 2.129-1.917L23 .976z" fill="#F8F8F8"/></svg><view id="image-num-5" viewBox="711 296 26 47"/><svg width="26" height="47" fill="none" viewBox="-1 -1 26 47" x="711" y="296" xmlns="http://www.w3.org/2000/svg"><path d="M5.63 34.942l4.518-16.644c.247-1.11.173-2.243-.222-3.4a52.4 52.4 0 01-1.037-3.402h4.222a31.13 31.13 0 00-.37 1.447c-.099.386-.074.869.074 1.447l5.555 20.48c.395 1.254 1.087 2.242 2.074 2.966 1.038.675 2.223 1.013 3.556 1.013L22.296 45h-.222c.099-.482.173-1.037.222-1.664.05-.58 0-1.134-.148-1.665a3.45 3.45 0 00-.74-1.302c-.346-.338-.89-.507-1.63-.507H4.222c-.691 0-1.234.17-1.63.507a3.396 3.396 0 00-.74 1.375 6.16 6.16 0 00-.222 1.664c.049.627.123 1.158.222 1.592H1.63L0 38.85c1.037 0 1.901-.146 2.593-.435.691-.338 1.234-.7 1.63-1.085.444-.435.765-.869.962-1.303.247-.434.395-.796.445-1.085zm2.222 3.907H14c.494 0 .938-.169 1.333-.506.445-.386.568-.917.37-1.592l-4.74-17.584-4.74 17.584c-.149.53-.174.94-.075 1.23.148.29.321.506.519.651.197.097.42.169.666.217h.519zM22.68.905a6.554 6.554 0 01-2.021 2.488 7.618 7.618 0 01-2.721 1.255 9.895 9.895 0 01-3.122.222 16.786 16.786 0 01-3.22-.586c-.822-.24-1.67-.518-2.548-.836a10.776 10.776 0 00-2.591-.623 5.257 5.257 0 00-2.373.267 4.078 4.078 0 00-1.976 1.824l-.772-.732a7.001 7.001 0 012.02-2.51A7.805 7.805 0 016.079.328 9.876 9.876 0 019.2.018c1.087.06 2.163.239 3.207.531.865.255 1.716.552 2.547.891.827.342 1.698.581 2.591.711.795.122 1.61.06 2.373-.18.732-.234 1.388-.836 1.977-1.777l.785.71z" fill="#fff"/></svg><view id="image-num-6" viewBox="737 296 26 47"/><svg width="26" height="47" fill="none" viewBox="-1 -1 26 47" x="737" y="296" xmlns="http://www.w3.org/2000/svg"><path d="M20.066 36.713c-.611 2.058-1.5 3.764-2.665 5.118-1.167 1.3-2.444 1.95-3.832 1.95-1.055 0-2.027-.406-2.915-1.218-.889-.867-1.638-2.005-2.25-3.413-.666-1.462-1.165-3.114-1.499-4.956a29.466 29.466 0 01-.583-5.93c.389.432 1.028.974 1.916 1.624.889.596 1.888.894 2.999.894.666 0 1.332-.136 1.999-.407.666-.324 1.221-.704 1.666-1.137a5.38 5.38 0 011.749-1.137c.666-.271 1.388-.217 2.166.162l.083-.162a6.218 6.218 0 00-.667-.57l-.832-.324a2.437 2.437 0 00-1.083-.244c-.445 0-.944.108-1.5.325-.61.163-1.388.515-2.332 1.056-.5.271-.972.515-1.416.732-.444.216-.833.325-1.166.325-.722 0-1.416-.298-2.082-.894-.722-.65-1.194-1.11-1.416-1.381.055-1.842.277-3.575.666-5.2s.888-3.033 1.5-4.225c.61-1.192 1.332-2.112 2.165-2.762.777-.704 1.61-1.057 2.499-1.057 1.444 0 2.776.488 3.998 1.463 1.166.92 1.832 2.031 1.999 3.331h.25l-.583-5.769h-.167c.111 1.192-.5 1.463-1.832.813-.611-.27-1.277-.515-2-.731-.721-.217-1.388-.325-1.998-.325-1.389 0-2.694.433-3.915 1.3-1.222.812-2.277 1.95-3.165 3.412-.944 1.462-1.694 3.169-2.25 5.119-.555 1.95-.832 4.035-.832 6.256 0 2.22.277 4.333.833 6.337.555 1.95 1.305 3.656 2.249 5.118.944 1.463 2.054 2.627 3.331 3.494 1.277.867 2.666 1.3 4.165 1.3 1.888 0 3.443-.704 4.664-2.112 1.222-1.409 2.305-3.331 3.249-5.769l-1.166-.406zM24 1.016a7.362 7.362 0 01-2.272 2.794 8.572 8.572 0 01-3.06 1.409 11.143 11.143 0 01-3.51.249 18.9 18.9 0 01-3.622-.658 47.703 47.703 0 01-2.864-.939 12.132 12.132 0 00-2.914-.7 5.92 5.92 0 00-2.668.3A4.583 4.583 0 00.868 5.52L0 4.697A7.863 7.863 0 012.272 1.88 8.782 8.782 0 015.332.368C6.472.066 7.66-.052 8.842.02c1.223.068 2.433.268 3.607.597.973.285 1.929.619 2.864 1 .93.384 1.91.652 2.914.798.894.137 1.81.068 2.668-.202.823-.263 1.56-.939 2.222-1.995l.883.798z" fill="#1E1E1E"/></svg><view id="image-num-7" viewBox="763 296 26 47"/><svg width="26" height="47" fill="none" viewBox="-1 -1 26 47" x="763" y="296" xmlns="http://www.w3.org/2000/svg"><path d="M4.265 38.907c.167 1.354.833 2.518 2 3.493 1.22.92 2.553 1.381 3.997 1.381.722 0 1.416-.19 2.083-.568a7.032 7.032 0 001.749-1.625 6.523 6.523 0 001.25-2.275c.332-.921.499-1.869.499-2.844 0-1.896-.5-3.412-1.5-4.55-.999-1.191-2.332-2.166-3.998-2.925-1.72-.812-3.165-1.841-4.33-3.087-1.111-1.246-1.667-2.817-1.667-4.712 0-1.138.222-2.221.667-3.25a9.046 9.046 0 011.749-2.681 8.146 8.146 0 012.665-1.87 7.85 7.85 0 013.332-.73c1 0 1.944.19 2.832.568.889.38 1.555.57 2 .57.443 0 .638-.299.582-.895h.167l.666 5.769-.25.081c-.222-1.354-.916-2.491-2.082-3.412-1.166-.975-2.471-1.463-3.915-1.463s-2.61.732-3.498 2.194c-.889 1.462-1.333 3.169-1.333 5.119 0 1.733.333 3.222 1 4.468.666 1.246 1.804 2.113 3.415 2.6a11.37 11.37 0 014.997 3.087c1.388 1.463 2.083 3.17 2.083 5.12 0 1.136-.25 2.22-.75 3.249a9.129 9.129 0 01-2.082 2.762 10.645 10.645 0 01-2.916 1.869 9.32 9.32 0 01-3.415.65c-.888 0-1.777-.217-2.665-.65-.889-.433-1.61-.65-2.166-.65-.5 0-.722.352-.666 1.056h-.167l-.583-5.768.25-.081zM24 1.016a7.362 7.362 0 01-2.272 2.794 8.572 8.572 0 01-3.06 1.409 11.143 11.143 0 01-3.51.249 18.9 18.9 0 01-3.622-.658 47.703 47.703 0 01-2.864-.939 12.132 12.132 0 00-2.914-.7 5.92 5.92 0 00-2.668.3A4.583 4.583 0 00.868 5.52L0 4.697A7.863 7.863 0 012.272 1.88 8.782 8.782 0 015.332.368C6.472.066 7.66-.052 8.842.02c1.223.068 2.433.268 3.607.597.973.285 1.929.619 2.864 1 .93.384 1.91.652 2.914.798.894.137 1.81.068 2.668-.202.823-.263 1.56-.939 2.222-1.995l.883.798z" fill="#1e1e1e"/></svg><view id="image-num-8" viewBox="789 296 26 47"/><svg width="26" height="47" fill="none" viewBox="-1 -1 26 47" x="789" y="296" xmlns="http://www.w3.org/2000/svg"><path d="M5.263 36.713c.611 2.058 1.5 3.764 2.666 5.118 1.221 1.3 2.61 1.95 4.164 1.95a3.18 3.18 0 001.833-.568 6.39 6.39 0 001.582-1.625c.5-.705.861-1.49 1.083-2.357.278-.92.417-1.841.417-2.762 0-2.004-.528-3.683-1.583-5.037-1-1.409-2.221-2.113-3.665-2.113v-1.137c1.444 0 2.582-.65 3.415-1.95.833-1.354 1.25-3.033 1.25-5.037 0-1.95-.417-3.657-1.25-5.119-.777-1.462-1.888-2.194-3.332-2.194-1.443 0-2.776.46-3.998 1.382-1.221.92-1.915 2.085-2.082 3.493l-.25-.081.666-5.769h.167c.111 1.138.694 1.436 1.75.894.61-.325 1.276-.596 1.998-.812.778-.217 1.472-.325 2.083-.325 1.11 0 2.138.243 3.082.73a7.513 7.513 0 012.498 1.87 7.875 7.875 0 011.666 2.68 9.12 9.12 0 01.583 3.25c0 1.734-.472 3.278-1.416 4.632a7.502 7.502 0 01-3.581 2.925c1.61.595 2.943 1.598 3.998 3.006 1.055 1.354 1.582 2.925 1.582 4.712 0 1.137-.25 2.22-.75 3.25a9.291 9.291 0 01-1.832 2.762 9.756 9.756 0 01-2.749 1.869 8.685 8.685 0 01-3.331.65c-1.888 0-3.443-.704-4.665-2.112-1.221-1.463-2.276-3.386-3.165-5.769l1.166-.406zM24 1.016a7.362 7.362 0 01-2.272 2.794 8.572 8.572 0 01-3.06 1.409 11.143 11.143 0 01-3.51.249 18.9 18.9 0 01-3.622-.658 47.703 47.703 0 01-2.864-.939 12.132 12.132 0 00-2.914-.7 5.92 5.92 0 00-2.668.3A4.583 4.583 0 00.868 5.52L0 4.697A7.863 7.863 0 012.272 1.88 8.782 8.782 0 015.332.368C6.472.066 7.66-.052 8.842.02c1.223.068 2.433.268 3.607.597.973.285 1.929.619 2.864 1 .93.384 1.91.652 2.914.798.894.137 1.81.068 2.668-.202.823-.263 1.56-.939 2.222-1.995l.883.798z" fill="#f8f8f8"/></svg><view id="image-num-9" viewBox="1077 296 25 45"/><svg width="25" height="45" fill="none" viewBox="-1 -1 25 45" x="1077" y="296" xmlns="http://www.w3.org/2000/svg"><path d="M0 12.557v-.156h9.836v.156c-.606.052-1.135.208-1.59.468-.403.26-.781.599-1.134 1.015-.353.417-.53 1.015-.53 1.796v20.529l11.954-23.964h1.135v27.086c0 .78.177 1.38.53 1.796.353.416.731.754 1.134 1.014.505.26 1.06.417 1.665.469V43h-9.835v-.234a4.417 4.417 0 001.664-.468c.403-.26.756-.599 1.06-1.015.352-.417.529-1.015.529-1.796v-20.53L4.464 43H3.329V15.835c0-.78-.177-1.379-.53-1.795a5.174 5.174 0 00-1.135-1.015A4.417 4.417 0 000 12.557zM22.068.976a7.012 7.012 0 01-2.064 2.684 7.598 7.598 0 01-2.779 1.354 9.585 9.585 0 01-3.189.239 16.327 16.327 0 01-3.29-.632 41.651 41.651 0 01-2.6-.902 10.525 10.525 0 00-2.648-.672 5.103 5.103 0 00-2.423.289 4.263 4.263 0 00-2.019 1.967l-.788-.79a7.492 7.492 0 012.064-2.707A7.812 7.812 0 015.112.353 9.574 9.574 0 018.3.02c1.11.065 2.21.257 3.276.573.884.274 1.752.595 2.601.96.845.37 1.735.627 2.647.767a5.104 5.104 0 002.424-.194c.747-.252 1.417-.902 2.018-1.917l.802.767z" fill="#1E1E1E"/></svg><view id="image-profile-star" viewBox="837 343 38 38"/><svg width="38" height="38" fill="none" viewBox="-1 -1 38 38" x="837" y="343" xmlns="http://www.w3.org/2000/svg"><path d="M34 2l-5.818 16L34 34l-16-5.818L2 34l5.818-16L2 2l16 5.818L34 2z" stroke="#1E1E1E" stroke-width="1.7"/></svg><view id="image-telegram" viewBox="711 343 42 42"/><svg width="42" height="42" fill="none" viewBox="-1 -1 42 42" x="711" y="343" xmlns="http://www.w3.org/2000/svg"><path d="M37.4 7.731L32.12 33.19c-.399 1.797-1.438 2.244-2.915 1.398l-8.047-6.062-3.884 3.818c-.43.439-.789.806-1.617.806l.578-8.377L31.15 10.997c.648-.59-.14-.918-1.008-.327l-18.44 11.866-7.938-2.54c-1.726-.55-1.758-1.764.36-2.61L35.174 5.16c1.437-.551 2.695.327 2.226 2.571z" fill="#F8F8F8"/></svg><view id="image-vk" viewBox="753 343 42 42"/><svg width="42" height="42" fill="none" viewBox="-1 -1 42 42" x="753" y="343" xmlns="http://www.w3.org/2000/svg"><path d="M32.807 21.466c1.215 1.144 2.5 2.22 3.591 3.482.483.559.939 1.136 1.286 1.785.495.926.048 1.942-.812 1.997l-5.34-.001c-1.38.11-2.477-.427-3.403-1.335-.738-.725-1.424-1.499-2.135-2.248-.29-.307-.597-.597-.962-.824-.728-.457-1.36-.317-1.777.416-.426.746-.523 1.573-.563 2.403-.058 1.214-.438 1.531-1.701 1.588-2.7.122-5.262-.273-7.643-1.585-2.1-1.157-3.726-2.79-5.142-4.64-2.759-3.604-4.871-7.56-6.77-11.63-.427-.917-.114-1.408.935-1.427A154.17 154.17 0 017.6 9.446c.71.01 1.178.402 1.451 1.047.942 2.233 2.097 4.359 3.543 6.33.386.525.78 1.048 1.34 1.419.619.409 1.09.274 1.382-.392.187-.423.267-.876.308-1.329.139-1.553.155-3.106-.085-4.653-.15-.968-.714-1.593-1.715-1.776-.51-.093-.435-.275-.187-.555.43-.486.833-.786 1.64-.786l6.033-.001c.95.18 1.164.591 1.293 1.514l.006 6.464c-.012.357.186 1.416.851 1.65.534.17.886-.243 1.205-.568 1.447-1.48 2.478-3.227 3.4-5.035.408-.798.76-1.623 1.101-2.45.254-.61.649-.911 1.364-.901l5.81.007c.172 0 .346.001.515.03.98.16 1.248.567.945 1.488-.477 1.446-1.403 2.651-2.309 3.86-.97 1.293-2.006 2.541-2.967 3.84-.883 1.188-.813 1.786.283 2.817z" fill="#F8F8F8"/></svg><view id="image-youtube" viewBox="795 343 42 42"/><svg width="42" height="42" fill="none" viewBox="-1 -1 42 42" x="795" y="343" xmlns="http://www.w3.org/2000/svg"><path opacity=".99" fill-rule="evenodd" clip-rule="evenodd" d="M20.413 8.75c2.023.009 10.86.083 13.281.725 1.5.392 2.682 1.537 3.085 2.99.65 2.301.715 6.764.721 7.913v.432c-.007.915-.072 5.613-.72 8.003-.404 1.453-1.586 2.598-3.086 2.99-2.42.617-11.258.689-13.28.697h-.828c-2.018-.009-10.836-.083-13.282-.725-1.5-.392-2.681-1.537-3.085-2.99-.625-2.277-.708-6.736-.719-7.885v-.549c.011-1.143.094-5.585.72-7.886.403-1.453 1.614-2.626 3.084-3.018 2.42-.617 11.258-.689 13.281-.697h.828zm-3.902 6.79v10.17l9.11-5.085-9.11-5.086z" fill="#F8F8F8"/></svg></svg>