<svg width="709" height="154" viewBox="0 0 709 154" fill="none" xmlns="http://www.w3.org/2000/svg"><path fill-rule="evenodd" clip-rule="evenodd" d="M431.807 0h.567c0 .758.252 1.453.757 2.085.504.505 1.134.695 1.89.569h85.07c.756.126 1.386-.064 1.891-.57.504-.63.756-1.326.756-2.084h.378l1.89 16.3-.567.19c-.504-3.285-2.142-5.939-4.915-7.96-2.647-2.023-5.608-3.033-8.885-3.033h-22.686c-1.764 0-3.276.631-4.537 1.895-1.134 1.137-1.701 2.59-1.701 4.36v129.454c0 2.906 1.071 5.37 3.214 7.392 2.142 2.022 4.663 3.033 7.562 3.033v.568h-29.87v-.568c2.899 0 5.42-1.074 7.562-3.222 2.269-2.148 3.403-4.549 3.403-7.203V11.751c0-1.769-.63-3.222-1.89-4.359-1.135-1.264-2.584-1.895-4.348-1.895h-22.875c-3.403 0-6.427 1.074-9.074 3.222-2.647 2.022-4.222 4.612-4.726 7.77l-.567-.189L431.807 0ZM8.697 148.977C6.3 150.873 3.402 151.82 0 151.82v.379h21.74v-.379c-1.512-.126-2.772-.505-3.78-1.137-.883-.632-1.64-1.453-2.27-2.464-.503-1.137-.503-2.59 0-4.359l16.826-63.306h29.869l16.825 63.874c.504 1.643.44 2.97-.19 3.981-.504.884-1.26 1.642-2.268 2.274-1.008.506-2.205.885-3.592 1.137v.379h56.858v-.568c-2.898 0-5.419-.885-7.561-2.654-2.143-1.769-3.214-4.043-3.214-6.823V11.751c0-1.769.567-3.222 1.701-4.359 1.26-1.264 2.773-1.895 4.537-1.895H175.2c1.764 0 3.214.631 4.348 1.895 1.26 1.137 1.89 2.59 1.89 4.36v129.454c0 3.033-1.071 5.56-3.213 7.582-2.143 1.895-4.663 2.843-7.562 2.843v.568h29.68v-.568c-2.773 0-5.293-.822-7.562-2.464-2.142-1.769-3.214-4.044-3.214-6.824V13.836c0-3.032 1.072-5.56 3.214-7.581 2.143-2.022 4.663-3.033 7.562-3.033v-.379H100.149v.38c3.025 0 5.546 1.01 7.562 3.032 2.143 2.022 3.214 4.486 3.214 7.392v128.128c0 2.906-1.071 5.307-3.214 7.202-2.132 1.76-4.637 2.645-7.517 2.654-2.395 0-4.411-.127-6.05-.758-1.638-.759-2.962-1.643-3.97-2.654-1.008-1.137-1.827-2.274-2.457-3.412-.504-1.263-.882-2.4-1.135-3.411L51.987 10.236c-.378-1.517-.44-2.78-.189-3.792.252-1.01.567-2.211.945-3.6H42.157a237.246 237.246 0 0 1 2.647 9.476c1.008 3.285 1.134 6.444.378 9.477l-31.57 119.409c-.883 3.285-2.521 5.876-4.916 7.771ZM61.627 77.9H33.084L47.45 23.124 61.628 77.9Zm546.578 73.731v.568h21.741v-.568c-1.387-.253-2.584-.695-3.592-1.327s-1.828-1.39-2.458-2.274c-.504-.885-.567-2.085-.189-3.602l31.949-121.304 31.759 121.304c.504 1.769.441 3.096-.189 3.981-.504.884-1.26 1.579-2.268 2.085-1.009.631-2.206 1.01-3.592 1.137v.568H708.4v-.568c-2.395 0-4.474-.442-6.238-1.327-1.639-.884-3.025-1.895-4.159-3.033-1.009-1.137-1.765-2.274-2.269-3.411-.504-1.138-.819-1.959-.945-2.464l-34.595-131.16c-.378-1.39-.441-2.654-.189-3.792a30.03 30.03 0 0 0 .945-3.6h-10.587a304.57 304.57 0 0 0 2.647 9.476c1.008 3.285 1.071 6.57.189 9.856l-31.381 119.03-.568 1.706c-.378 1.137-1.071 2.338-2.079 3.601-.882 1.264-2.206 2.464-3.97 3.601-1.764 1.011-4.096 1.517-6.995 1.517ZM279.959 6.058C273.738 2.02 267.064 0 259.936 0s-13.802 2.02-20.022 6.058c-6.221 4.04-11.664 9.576-16.33 16.612-4.665 6.905-8.359 15.048-11.08 24.429-2.722 9.38-4.082 19.348-4.082 29.901 0 10.684 1.36 20.716 4.082 30.096 2.721 9.251 6.415 17.394 11.08 24.429 4.666 6.906 10.109 12.378 16.33 16.417 6.22 4.039 12.894 6.058 20.022 6.058 7.128 0 13.802-2.019 20.023-6.058 6.35-4.039 11.858-9.511 16.523-16.417 4.666-7.035 8.295-15.178 10.887-24.429 2.721-9.38 4.082-19.412 4.082-30.096 0-10.553-1.361-20.52-4.082-29.901-2.592-9.38-6.221-17.524-10.887-24.429-4.665-7.036-10.173-12.573-16.523-16.612Zm-3.499 139.343c-5.055 3.909-10.562 5.863-16.524 5.863-5.961 0-11.469-1.954-16.523-5.863-5.055-3.909-9.461-9.185-13.219-15.83-3.758-6.775-6.739-14.657-8.942-23.647-2.074-8.99-3.111-18.631-3.111-28.924s1.037-19.934 3.111-28.924c2.203-8.99 5.184-16.807 8.942-23.452 3.758-6.775 8.164-12.116 13.219-16.025 5.054-3.909 10.562-5.863 16.523-5.863 5.962 0 11.469 1.954 16.524 5.863 5.184 3.909 9.59 9.25 13.219 16.025 3.758 6.645 6.674 14.462 8.747 23.452 2.204 8.99 3.305 18.631 3.305 28.924s-1.101 19.934-3.305 28.924c-2.073 8.99-4.989 16.872-8.747 23.647-3.629 6.645-8.035 11.921-13.219 15.83ZM568.551 0c7.128 0 13.802 2.02 20.023 6.058 6.35 4.04 11.858 9.576 16.524 16.612 4.665 6.905 8.294 15.048 10.886 24.429 2.721 9.38 4.082 19.348 4.082 29.901 0 10.684-1.361 20.716-4.082 30.096-2.592 9.251-6.221 17.394-10.886 24.429-4.666 6.906-10.174 12.378-16.524 16.417-6.221 4.039-12.895 6.058-20.023 6.058-7.127 0-13.802-2.019-20.022-6.058-6.221-4.039-11.664-9.511-16.329-16.417-4.666-7.035-8.359-15.178-11.081-24.429-2.721-9.38-4.082-19.412-4.082-30.096 0-10.553 1.361-20.52 4.082-29.901 2.722-9.38 6.415-17.524 11.081-24.429 4.665-7.036 10.108-12.573 16.329-16.612C554.749 2.02 561.424 0 568.551 0Zm0 151.264c5.962 0 11.47-1.954 16.524-5.863 5.184-3.909 9.59-9.185 13.219-15.83 3.758-6.775 6.674-14.657 8.748-23.647 2.203-8.99 3.304-18.631 3.304-28.924s-1.101-19.934-3.304-28.924c-2.074-8.99-4.99-16.807-8.748-23.452-3.629-6.775-8.035-12.116-13.219-16.025-5.054-3.909-10.562-5.863-16.524-5.863-5.961 0-11.469 1.954-16.523 5.863-5.054 3.909-9.461 9.25-13.219 16.025-3.758 6.645-6.739 14.462-8.942 23.452-2.074 8.99-3.11 18.631-3.11 28.924s1.036 19.934 3.11 28.924c2.203 8.99 5.184 16.872 8.942 23.647 3.758 6.645 8.165 11.921 13.219 15.83 5.054 3.909 10.562 5.863 16.523 5.863Zm-244.34-72.826c0-10.484 1.663-20.265 4.989-29.342 3.326-9.206 7.867-17.196 13.623-23.973 5.756-6.904 12.472-12.338 20.146-16.301 7.675-3.964 15.862-5.945 24.56-5.945h13.047c1.024 0 1.791-.256 2.303-.767.512-.64.767-1.343.767-2.11h.576l14.774 16.493-.384.192c-2.302-2.43-4.668-4.347-7.099-5.753-2.302-1.535-4.541-2.685-6.715-3.453-2.175-.767-4.222-1.278-6.14-1.534-1.919-.256-3.582-.383-4.989-.383h-2.494c-8.059 0-15.67 1.917-22.833 5.753-7.163 3.836-13.367 9.078-18.612 15.726-5.244 6.52-9.465 14.192-12.663 23.014-3.07 8.822-4.605 18.283-4.605 28.383 0 10.1 1.535 19.562 4.605 28.384 3.07 8.822 7.227 16.557 12.471 23.205 5.373 6.521 11.641 11.699 18.804 15.535 7.163 3.835 14.774 5.753 22.833 5.753 20.332 0 37.989-11.422 48.607-28.336 3.137-4.996 6.429-13.301 7.06-15.13.63-1.829 1.09-3.887 1.378-6.174.288-2.287.261-4.803-.08-7.548-.169-2.801-.824-5.775-1.966-8.921l.344-.257 8.134 20.591-.258.514c-.686-.343-1.43-.43-2.231-.259-.686.228-1.259.799-1.717 1.714 0 0-4.263 9.773-7.306 14.751-12.571 20.562-31.687 31.74-56.186 31.74-5.773 0-16.693-1.982-24.368-5.945-7.675-3.964-14.327-9.334-19.955-16.11-5.628-6.904-10.105-14.895-13.431-23.972-3.326-9.206-4.989-19.05-4.989-29.535Z" fill="#F8F8F8"/></svg>