<svg width="1344" height="294" viewBox="0 0 1344 294" fill="none" xmlns="http://www.w3.org/2000/svg"><path fill-rule="evenodd" clip-rule="evenodd" d="M819.239 0h1.076c0 1.444.478 2.768 1.435 3.972.956.962 2.152 1.324 3.586 1.083h161.398c1.435.24 2.63-.12 3.587-1.083.956-1.204 1.434-2.528 1.434-3.972h.717l3.587 31.051-1.076.361c-.956-6.258-4.065-11.313-9.325-15.164-5.021-3.852-10.64-5.777-16.857-5.777h-43.04c-3.347 0-6.216 1.203-8.607 3.61-2.152 2.167-3.228 4.935-3.228 8.305v246.603c0 5.536 2.032 10.23 6.097 14.081 4.065 3.852 8.847 5.777 14.346 5.777v1.083h-56.668v-1.083c5.499 0 10.281-2.046 14.346-6.138 4.304-4.092 6.456-8.665 6.456-13.72V22.386c0-3.37-1.195-6.138-3.586-8.305-2.152-2.407-4.902-3.61-8.25-3.61h-43.398c-6.456 0-12.194 2.046-17.215 6.138-5.022 3.851-8.011 8.785-8.967 14.803l-1.076-.36L819.239 0ZM16.499 283.792c-4.544 3.611-10.043 5.416-16.499 5.416v.722h41.246v-.722c-2.87-.24-5.26-.963-7.173-2.166-1.674-1.204-3.109-2.768-4.304-4.694-.956-2.166-.956-4.934 0-8.304l31.92-120.594h56.669l31.921 121.677c.957 3.129.837 5.657-.358 7.582-.957 1.685-2.392 3.129-4.304 4.333-1.913.963-4.185 1.685-6.815 2.166v.722h107.873v-1.083c-5.499 0-10.282-1.685-14.346-5.055-4.065-3.37-6.098-7.702-6.098-12.998V22.386c0-3.37 1.076-6.138 3.228-8.305 2.391-2.407 5.261-3.61 8.608-3.61h94.328c3.348 0 6.097 1.203 8.249 3.61 2.391 2.167 3.587 4.935 3.587 8.305v246.603c0 5.777-2.032 10.591-6.097 14.442-4.065 3.611-8.847 5.416-14.347 5.416v1.083h56.31v-1.083c-5.26 0-10.042-1.564-14.346-4.694-4.065-3.369-6.098-7.702-6.098-12.998V26.357c0-5.777 2.033-10.59 6.098-14.442 4.065-3.851 8.847-5.777 14.346-5.777v-.722h-190.09v.722c5.738 0 10.52 1.926 14.346 5.777 4.065 3.851 6.097 8.545 6.097 14.081v244.076c0 5.536-2.032 10.11-6.097 13.72-4.044 3.353-8.798 5.038-14.262 5.055-4.543 0-8.369-.24-11.478-1.444-3.108-1.444-5.619-3.129-7.531-5.055-1.913-2.166-3.468-4.333-4.663-6.499-.956-2.407-1.674-4.573-2.152-6.499L98.632 19.497c-.717-2.888-.837-5.295-.359-7.221a339.643 339.643 0 0 1 1.794-6.86H79.982c1.673 5.536 3.347 11.554 5.02 18.053 1.914 6.258 2.153 12.276.718 18.053L25.824 268.989c-1.674 6.258-4.783 11.193-9.326 14.803Zm100.425-135.397H62.766L90.024 44.049l26.9 104.346ZM1153.91 288.847v1.083h41.25v-1.083c-2.63-.481-4.91-1.324-6.82-2.527-1.91-1.204-3.47-2.648-4.66-4.333-.96-1.685-1.08-3.972-.36-6.86l60.61-231.078 60.26 231.078c.96 3.37.84 5.897-.36 7.582-.96 1.685-2.39 3.009-4.3 3.972-1.92 1.203-4.19 1.925-6.82 2.166v1.083H1344v-1.083c-4.54 0-8.49-.842-11.84-2.527-3.1-1.685-5.73-3.611-7.89-5.777-1.91-2.167-3.34-4.333-4.3-6.499-.96-2.167-1.55-3.731-1.79-4.694l-65.64-249.853c-.72-2.648-.84-5.055-.36-7.221a57.219 57.219 0 0 0 1.8-6.86h-20.09a599.51 599.51 0 0 0 5.02 18.053c1.91 6.258 2.03 12.517.36 18.775l-59.54 226.745-1.07 3.249c-.72 2.167-2.04 4.454-3.95 6.861-1.67 2.407-4.18 4.693-7.53 6.86-3.35 1.925-7.77 2.888-13.27 2.888ZM531.147 11.541C519.345 3.847 506.683 0 493.16 0c-13.524 0-26.186 3.847-37.988 11.54-11.802 7.695-22.129 18.243-30.98 31.645-8.852 13.154-15.859 28.666-21.023 46.536-5.163 17.869-7.745 36.856-7.745 56.959 0 20.352 2.582 39.462 7.745 57.332 5.164 17.622 12.171 33.133 21.023 46.536 8.851 13.154 19.178 23.578 30.98 31.272 11.802 7.693 24.464 11.54 37.988 11.54 13.523 0 26.185-3.847 37.987-11.54 12.048-7.694 22.498-18.118 31.349-31.272 8.852-13.403 15.736-28.914 20.654-46.536 5.163-17.87 7.745-36.98 7.745-57.332 0-20.103-2.582-39.09-7.745-56.96-4.918-17.869-11.802-33.38-20.654-46.535-8.851-13.402-19.301-23.95-31.349-31.644Zm-6.638 265.439c-9.59 7.446-20.039 11.168-31.349 11.168-11.311 0-21.76-3.722-31.349-11.168-9.59-7.446-17.949-17.498-25.08-30.155-7.13-12.906-12.785-27.922-16.965-45.047-3.934-17.125-5.901-35.491-5.901-55.098s1.967-37.973 5.901-55.098c4.18-17.125 9.835-32.016 16.965-44.674 7.131-12.906 15.49-23.082 25.08-30.527C471.4 8.935 481.849 5.212 493.16 5.212c11.31 0 21.759 3.723 31.349 11.169 9.835 7.445 18.194 17.621 25.079 30.527 7.13 12.658 12.662 27.549 16.596 44.674 4.18 17.125 6.27 35.491 6.27 55.098s-2.09 37.973-6.27 55.098c-3.934 17.125-9.466 32.141-16.596 45.047-6.885 12.657-15.244 22.709-25.079 30.155ZM1078.67 0c13.53 0 26.19 3.847 37.99 11.54 12.05 7.695 22.5 18.243 31.35 31.645 8.85 13.154 15.74 28.666 20.65 46.536 5.17 17.869 7.75 36.856 7.75 56.959 0 20.352-2.58 39.462-7.75 57.332-4.91 17.622-11.8 33.133-20.65 46.536-8.85 13.154-19.3 23.578-31.35 31.272-11.8 7.693-24.46 11.54-37.99 11.54-13.52 0-26.18-3.847-37.98-11.54-11.81-7.694-22.13-18.118-30.98-31.272-8.85-13.403-15.862-28.914-21.026-46.536-5.163-17.87-7.745-36.98-7.745-57.332 0-20.103 2.582-39.09 7.745-56.96 5.164-17.869 12.176-33.38 21.026-46.535 8.85-13.402 19.17-23.95 30.98-31.644C1052.49 3.847 1065.15 0 1078.67 0Zm0 288.148c11.31 0 21.76-3.722 31.35-11.168 9.84-7.446 18.2-17.498 25.08-30.155 7.13-12.906 12.67-27.922 16.6-45.047 4.18-17.125 6.27-35.491 6.27-55.098s-2.09-37.973-6.27-55.098c-3.93-17.125-9.47-32.016-16.6-44.674-6.88-12.906-15.24-23.082-25.08-30.527-9.59-7.446-20.04-11.169-31.35-11.169-11.31 0-21.76 3.723-31.34 11.169-9.59 7.445-17.95 17.621-25.08 30.527-7.13 12.658-12.79 27.549-16.97 44.674-3.93 17.125-5.9 35.491-5.9 55.098s1.97 37.973 5.9 55.098c4.18 17.125 9.84 32.141 16.97 45.047 7.13 12.657 15.49 22.709 25.08 30.155 9.58 7.446 20.03 11.168 31.34 11.168ZM615.105 149.42c0-19.971 3.154-38.603 9.464-55.895 6.31-17.536 14.925-32.758 25.846-45.667 10.921-13.152 23.662-23.503 38.223-31.053 14.561-7.55 30.093-11.325 46.595-11.325h24.754c1.941 0 3.397-.487 4.368-1.461.971-1.218 1.456-2.558 1.456-4.019h1.092l28.03 31.418-.728.366c-4.368-4.628-8.858-8.281-13.469-10.96-4.368-2.923-8.615-5.115-12.741-6.576-4.125-1.461-8.008-2.436-11.648-2.923-3.641-.487-6.796-.73-9.465-.73h-4.732c-15.29 0-29.729 3.653-43.319 10.96-13.591 7.306-25.361 17.292-35.311 29.957-9.95 12.42-17.959 27.034-24.026 43.84-5.824 16.804-8.736 34.827-8.736 54.068s2.912 37.264 8.736 54.069c5.825 16.805 13.712 31.54 23.662 44.205 10.193 12.421 22.084 22.285 35.675 29.592 13.59 7.306 28.029 10.96 43.319 10.96 38.574 0 72.075-21.758 92.219-53.978 5.951-9.518 12.197-25.338 13.394-28.822 1.197-3.485 2.068-7.405 2.614-11.762.547-4.356.496-9.148-.15-14.377-.322-5.338-1.565-11.002-3.731-16.995l.652-.49 15.433 39.225-.489.98c-1.302-.655-2.713-.819-4.233-.494-1.302.435-2.389 1.523-3.258 3.265 0 0-8.088 18.618-13.862 28.1-23.849 39.168-60.117 60.462-106.598 60.462-10.952 0-31.67-3.775-46.231-11.325-14.561-7.55-27.181-17.779-37.859-30.688-10.678-13.151-19.172-28.374-25.482-45.666-6.31-17.536-9.464-36.289-9.464-56.261Z" fill="#1E1E1E"/></svg>