<svg width="25" height="28" viewBox="0 0 25 28" fill="none" xmlns="http://www.w3.org/2000/svg"><path d="M24.202 3.466A5.573 5.573 0 0 0 21.305.463a5.158 5.158 0 0 0-1.316-.387A6.168 6.168 0 0 0 19.13 0L4.452.016v.14c.32-.008.638.054.934.18.296.127.563.316.785.555.23.248.409.541.526.862.118.321.171.664.158 1.007l.021 11.38c-.129.18-.33.445-.612.763-.355.415-.714.62-1.075.62a1.158 1.158 0 0 1-.593-.223 17.968 17.968 0 0 1-.72-.486 6.19 6.19 0 0 0-1.163-.728 2.086 2.086 0 0 0-.784-.19 1.045 1.045 0 0 0-.525.138c-.154.09-.303.172-.442.243a3.37 3.37 0 0 0-.34.384l.043.109a1.042 1.042 0 0 1 1.1-.11c.344.186.646.443.888.756.236.295.523.542.847.728.308.19.658.291 1.016.296a2.203 2.203 0 0 0 1.524-.623c.305-.274.588-.572.847-.891l.02 10.327a2.67 2.67 0 0 1-.153 1.018 2.601 2.601 0 0 1-.525.876 2.381 2.381 0 0 1-.817.547 2.31 2.31 0 0 1-.96.163V28h6.686v-.143a2.243 2.243 0 0 1-.934-.18 2.315 2.315 0 0 1-.785-.555 2.566 2.566 0 0 1-.534-.86 2.637 2.637 0 0 1-.165-1.009V2.288a1.62 1.62 0 0 1 .124-.654 1.57 1.57 0 0 1 .375-.542c.245-.237.568-.368.902-.368h6.158a5.503 5.503 0 0 0-1.221.949 5.774 5.774 0 0 0-1.167 1.793 5.661 5.661 0 0 0-.43 2.204 5.55 5.55 0 0 0 .43 2.19 5.855 5.855 0 0 0 1.167 1.782 5.582 5.582 0 0 0 1.72 1.21 5.17 5.17 0 0 0 2.125.445h.266a5.162 5.162 0 0 0 2.126-.446 5.607 5.607 0 0 0 2.897-2.99c.289-.69.436-1.436.43-2.19a5.663 5.663 0 0 0-.42-2.205Zm-1.277 4.186a5.51 5.51 0 0 1-.905 1.624 4.275 4.275 0 0 1-1.332 1.092 3.498 3.498 0 0 1-1.556.39h-.172a3.497 3.497 0 0 1-1.556-.39 4.299 4.299 0 0 1-1.333-1.092 5.512 5.512 0 0 1-.904-1.624 5.884 5.884 0 0 1-.331-1.982 5.945 5.945 0 0 1 .333-2.005c.204-.548.51-1.047.902-1.47a4.488 4.488 0 0 1 1.335-1.081 3.34 3.34 0 0 1 1.612-.386 3.546 3.546 0 0 1 1.668.386c.508.272.961.644 1.334 1.094.392.423.7.923.905 1.47.223.643.335 1.322.331 2.005a5.883 5.883 0 0 1-.331 1.97Z" fill="#fff"/></svg>