<svg width="32" height="24" viewBox="0 0 32 24" fill="none" xmlns="http://www.w3.org/2000/svg"><path d="M17.017 23.07a12.138 12.138 0 0 0 3.905-2.557 12.144 12.144 0 0 0 2.63-3.825c.12-.276.223-.555.323-.837L32 19.423V4.58l-8.13 3.575a11.728 11.728 0 0 0-.319-.816 12.219 12.219 0 0 0-2.63-3.805A12.506 12.506 0 0 0 17.018.951a12.432 12.432 0 0 0-9.535 0 12.573 12.573 0 0 0-3.887 2.582 12.22 12.22 0 0 0-2.63 3.805A11.35 11.35 0 0 0 0 12c-.01 1.614.319 3.213.965 4.688a12.144 12.144 0 0 0 2.63 3.825 12.201 12.201 0 0 0 3.887 2.557 12.687 12.687 0 0 0 9.535 0Zm14.22-15.884v9.582l-6.874-2.94A11.89 11.89 0 0 0 24.498 12a12.211 12.211 0 0 0-.137-1.842l6.875-2.972Zm-7.546 6.346L20.128 12l3.563-1.55a8.652 8.652 0 0 1 0 3.081ZM7.91 20.988a12.415 12.415 0 0 1-3.75-2.037 9.612 9.612 0 0 1-2.545-3.08 8.258 8.258 0 0 1-.934-3.874 8.127 8.127 0 0 1 .934-3.848A9.985 9.985 0 0 1 4.16 5.07a12.066 12.066 0 0 1 3.75-2.066 12.421 12.421 0 0 1 4.347-.75 12.426 12.426 0 0 1 4.35.75 12.14 12.14 0 0 1 3.75 2.066 10.056 10.056 0 0 1 2.545 3.079c.061.119.117.238.173.356L15.115 12l7.958 3.5c-.059.126-.117.258-.18.374a9.677 9.677 0 0 1-2.546 3.079 12.463 12.463 0 0 1-3.75 2.038c-1.395.507-2.868.76-4.35.746a12.419 12.419 0 0 1-4.338-.749Z" fill="#fff"/></svg>