<svg width="22" height="28" viewBox="0 0 22 28" fill="none" xmlns="http://www.w3.org/2000/svg"><path d="M20.936 14.89a10.617 10.617 0 0 1-2.237 3.417 10.625 10.625 0 0 1-3.347 2.3c-.242.105-.486.197-.732.283L17.745 28H4.757l3.128-7.114c-.242-.085-.48-.176-.714-.278a10.694 10.694 0 0 1-3.33-2.301 10.942 10.942 0 0 1-2.26-3.417 10.878 10.878 0 0 1 0-8.344 11 11 0 0 1 2.26-3.4c.95-.97 2.08-1.752 3.33-2.302A9.931 9.931 0 0 1 11.25 0a10.069 10.069 0 0 1 4.102.844 10.625 10.625 0 0 1 3.347 2.301 10.679 10.679 0 0 1 2.237 3.401 11.101 11.101 0 0 1 0 8.344ZM7.037 27.332h8.385l-2.572-6.014a10.848 10.848 0 0 1-3.211-.002l-2.602 6.016Zm5.553-6.602-1.34-3.118-1.356 3.118a7.565 7.565 0 0 0 2.696 0Zm6.525-13.81a10.864 10.864 0 0 0-1.783-3.28 8.41 8.41 0 0 0-2.694-2.228 7.226 7.226 0 0 0-3.39-.817 7.111 7.111 0 0 0-3.368.817A8.737 8.737 0 0 0 5.186 3.64c-.794.98-1.406 2.09-1.808 3.28a10.868 10.868 0 0 0-.655 3.805c-.01 1.297.211 2.585.655 3.806a10.624 10.624 0 0 0 1.808 3.281A8.8 8.8 0 0 0 7.88 20.04a9.9 9.9 0 0 0 .312.152l3.058-6.965 3.062 6.963c.111-.052.226-.103.328-.158a8.47 8.47 0 0 0 2.694-2.228 10.904 10.904 0 0 0 1.783-3.28c.443-1.222.665-2.51.653-3.807a10.87 10.87 0 0 0-.655-3.795Z" fill="#F8F8F8"/></svg>