<svg width="21" height="29" viewBox="0 0 21 29" fill="none" xmlns="http://www.w3.org/2000/svg"><path d="M19.725 4.288a7.072 7.072 0 0 0-1.43-2.212A6.823 6.823 0 0 0 16.132.567 7.63 7.63 0 0 0 13.224 0H5.08l.091.016H5.08v.145a2.552 2.552 0 0 1 1.875.762 2.602 2.602 0 0 1 .762 1.935l.023 11.261H4.588a.565.565 0 0 1-.485-.23.776.776 0 0 1-.162-.462H3.85L.25 17.65l.091.097c1.17-1.21 2.294-1.993 3.37-2.353a8.807 8.807 0 0 1 2.677-.54h1.345l.023 11.303a2.629 2.629 0 0 1-.738 1.96 2.6 2.6 0 0 1-.891.567 2.64 2.64 0 0 1-1.047.17V29h7.29v-.148a2.554 2.554 0 0 1-1.018-.186 2.52 2.52 0 0 1-.856-.575 2.631 2.631 0 0 1-.583-.89 2.597 2.597 0 0 1-.179-1.045V14.83c5.829-.12 7.734-2.044 7.734-2.044a6.84 6.84 0 0 0 1.582-1.714 7.402 7.402 0 0 0 1.2-4.037 7.166 7.166 0 0 0-.525-2.747Zm-1.6 5.045a7.341 7.341 0 0 1-1.03 1.97 6.413 6.413 0 0 1-.548.648c-1.64 1.64-4.898 2.05-6.796 2.145V2.208C9.75.424 11.977.494 12.863.533c.74.003 1.469.176 2.128.507a6.193 6.193 0 0 1 1.84 1.454 6.761 6.761 0 0 1 1.23 2.101 7.05 7.05 0 0 1 .438 2.475 6.879 6.879 0 0 1-.375 2.263Z" fill="#F8F8F8"/></svg>