<svg width="31" height="26" viewBox="0 0 31 26" fill="none" xmlns="http://www.w3.org/2000/svg"><path d="M30.314 3.21C29.754 1.95 28.7.948 27.376.413A5.623 5.623 0 0 0 25.22 0H6.258a5.627 5.627 0 0 0-3.875 1.536A5.414 5.414 0 0 0 1.186 3.21 4.896 4.896 0 0 0 .75 5.254c-.005.698.144 1.39.436 2.03A5.405 5.405 0 0 0 2.37 8.94a5.661 5.661 0 0 0 3.91 1.536h.273a5.623 5.623 0 0 0 2.155-.413c1.32-.533 2.373-1.528 2.94-2.777.078-.168.146-.34.204-.515l3.074 6.597L8.646 26h14.248l-6.45-13.767 2.99-6.54c.045.55.188 1.087.421 1.592.566 1.25 1.619 2.243 2.939 2.775a5.61 5.61 0 0 0 2.153.413h.273a5.622 5.622 0 0 0 2.156-.413c1.318-.533 2.37-1.527 2.938-2.775a4.77 4.77 0 0 0 .436-2.03 4.862 4.862 0 0 0-.436-2.046ZM10.352 7.092a4.943 4.943 0 0 1-.916 1.507 4.264 4.264 0 0 1-1.353 1.015 3.795 3.795 0 0 1-1.576.36H6.33a3.801 3.801 0 0 1-1.576-.36A4.255 4.255 0 0 1 3.403 8.6a4.905 4.905 0 0 1-.91-1.507 5.032 5.032 0 0 1-.335-1.839 5.144 5.144 0 0 1 .336-1.86c.207-.509.519-.973.918-1.365a4.48 4.48 0 0 1 1.351-1.016A3.664 3.664 0 0 1 6.4.656a3.906 3.906 0 0 1 1.691.357c.516.254.975.598 1.354 1.016.397.393.708.857.916 1.364.227.597.34 1.227.335 1.861a4.992 4.992 0 0 1-.344 1.839Zm9.05 15.89c.172.352.334.689.11 1.034a.95.95 0 0 1-.297.242c-.115.06-.242.097-.373.11h-7.555a.791.791 0 0 1-.32-.098.748.748 0 0 1-.245-.219c-.218-.306-.039-.736.136-1.087l4.464-8.904 4.08 8.922ZM16.068 11.54l-3.31-7.217s-.92-2.033-2.2-2.943a8.026 8.026 0 0 0-1.23-.717h12.95a6.113 6.113 0 0 0-.629.387.502.502 0 0 1-.056.033 3.542 3.542 0 0 0-.828.746 5.382 5.382 0 0 0-.912 1.38c-.022.049-.041.1-.063.15-.096.19-.17.348-.218.445l-3.504 7.736Zm12.949-4.449c-.21.55-.52 1.06-.916 1.508a4.264 4.264 0 0 1-1.353 1.015 3.795 3.795 0 0 1-1.585.36h-.176a3.801 3.801 0 0 1-1.568-.36A4.255 4.255 0 0 1 22.068 8.6a4.906 4.906 0 0 1-.918-1.507 5.032 5.032 0 0 1-.335-1.839 5.142 5.142 0 0 1 .335-1.86c.207-.509.52-.973.918-1.365a4.483 4.483 0 0 1 1.351-1.007 3.664 3.664 0 0 1 1.637-.358 3.898 3.898 0 0 1 1.692.358c.515.253.975.598 1.353 1.015a4.1 4.1 0 0 1 .916 1.365 5.11 5.11 0 0 1 .336 1.86 4.99 4.99 0 0 1-.336 1.83Z" fill="#F8F8F8"/></svg>