<svg width="21" height="31" viewBox="0 0 21 31" fill="none" xmlns="http://www.w3.org/2000/svg"><path d="M19.538 9.504a17.552 17.552 0 0 0-2.133-4.935 11.242 11.242 0 0 0-3.182-3.324A7.225 7.225 0 0 0 11.827.197a5.235 5.235 0 0 0-1.14-.174h-.117v.014h-.044V.006h-.12a5.203 5.203 0 0 0-1.908.268 7.193 7.193 0 0 0-2.07.969 11.36 11.36 0 0 0-3.17 3.326 17.988 17.988 0 0 0-2.153 4.935 22.264 22.264 0 0 0-.792 6.018 22.185 22.185 0 0 0 .792 6.028c.47 1.742 1.196 3.4 2.153 4.916a11.328 11.328 0 0 0 3.17 3.324 6.835 6.835 0 0 0 3.89 1.21 6.913 6.913 0 0 0 3.905-1.21 11.21 11.21 0 0 0 3.191-3.324 17.55 17.55 0 0 0 2.124-4.916c.528-1.965.788-3.996.774-6.035a22.77 22.77 0 0 0-.774-6.01ZM10.516.587l-.02.2a3.611 3.611 0 0 1 1.718.485c.522.324.98.748 1.348 1.249.394.482.693 1.039.882 1.639.206.705.295 1.442.264 2.178a6.563 6.563 0 0 1-.426 2.14 5.927 5.927 0 0 1-1.008 1.721 4.44 4.44 0 0 1-1.435 1.126 3.52 3.52 0 0 1-1.641.35h-.181a3.51 3.51 0 0 1-1.606-.483A4.53 4.53 0 0 1 7.068 9.93a6.03 6.03 0 0 1-.877-1.803 6.648 6.648 0 0 1-.265-2.167 6.675 6.675 0 0 1 .427-2.151 4.86 4.86 0 0 1 .994-1.552c.403-.468.89-.85 1.434-1.126a3.356 3.356 0 0 1 1.707-.343V.584l.028.003Zm3.85 26.431a4.912 4.912 0 0 1-.938 1.598c-.39.486-.867.89-1.406 1.188a3.57 3.57 0 0 1-1.733.417l.014.242h-.019v-.242a3.397 3.397 0 0 1-1.685-.417 4.775 4.775 0 0 1-1.393-1.188 4.91 4.91 0 0 1-.938-1.598 6.73 6.73 0 0 1-.347-2.179 6.606 6.606 0 0 1 .347-2.154 5.98 5.98 0 0 1 .938-1.765 4.48 4.48 0 0 1 1.39-1.186 3.505 3.505 0 0 1 1.623-.424h.183c.57.01 1.13.158 1.634.434a4.49 4.49 0 0 1 1.39 1.186 5.98 5.98 0 0 1 .938 1.765c.234.692.351 1.42.347 2.154a6.731 6.731 0 0 1-.345 2.169Zm3.69-5.725a18.085 18.085 0 0 1-1.788 4.701c-.11.196-.235.385-.34.569a6.557 6.557 0 0 0 .234-1.714 6.263 6.263 0 0 0-.452-2.38 6.395 6.395 0 0 0-1.22-1.936 5.79 5.79 0 0 0-1.805-1.314 5.177 5.177 0 0 0-2.218-.485h-.281a5.177 5.177 0 0 0-2.218.485 5.83 5.83 0 0 0-1.808 1.314 6.435 6.435 0 0 0-1.217 1.936 6.263 6.263 0 0 0-.452 2.38 6.487 6.487 0 0 0 .202 1.62 9.887 9.887 0 0 1-.286-.485 18.503 18.503 0 0 1-1.806-4.7 23.983 23.983 0 0 1-.673-5.762 24.073 24.073 0 0 1 .664-5.754 18.524 18.524 0 0 1 1.805-4.72c.087-.153.176-.298.267-.443a6.57 6.57 0 0 0-.178 1.297 6.383 6.383 0 0 0 1.508 4.381 5.852 5.852 0 0 0 1.756 1.393 5.208 5.208 0 0 0 2.2.583h.269a5.173 5.173 0 0 0 2.234-.392 5.735 5.735 0 0 0 1.864-1.21 6.248 6.248 0 0 0 1.29-1.879 6.25 6.25 0 0 0 .541-2.358 6.596 6.596 0 0 0-.206-1.907c.11.177.22.358.326.545a18.094 18.094 0 0 1 1.788 4.72c.442 1.88.66 3.81.65 5.744a24.48 24.48 0 0 1-.65 5.771Z" fill="#F8F8F8"/></svg>