<svg width="24" height="28" viewBox="0 0 24 28" fill="none" xmlns="http://www.w3.org/2000/svg"><g clip-path="url(#a)"><path d="M22.44.74c.2-.207.442-.371.71-.484A2.19 2.19 0 0 1 24 .087V0h-6.155v.091c.306 0 .609.067.885.195.277.128.52.314.712.545.45.517.685 1.176.662 1.851v7.427h-7.775V2.611a2.21 2.21 0 0 1 .173-.963c.128-.305.323-.58.571-.806a2.606 2.606 0 0 1 1.753-.75V.02H9.174v.07a2.56 2.56 0 0 1 1.753.764c.247.232.441.51.57.82.128.308.187.64.175.972v7.464H3.934V2.45c-.013-.315.04-.628.156-.922.116-.294.292-.562.519-.788.199-.207.44-.371.708-.484.268-.112.557-.17.848-.169V0H0v.091c.296.001.589.064.858.184.268.12.508.293.701.51.448.481.685 1.111.661 1.758v22.129a2.631 2.631 0 0 1-.645 1.825A2.071 2.071 0 0 1 0 27.215v.139h14.427a.495.495 0 0 1 .37.217.68.68 0 0 1 .175.435h.079l.389-3.974h-.117a2.965 2.965 0 0 1-.995 1.895 2.936 2.936 0 0 1-1.849.785H5.222a1.155 1.155 0 0 1-.512-.111 1.118 1.118 0 0 1-.404-.324 1.622 1.622 0 0 1-.371-1.088V10.76H24v-.139c-.298 0-.593-.065-.862-.189a2.018 2.018 0 0 1-.697-.526 2.592 2.592 0 0 1-.662-1.828V2.404a2.204 2.204 0 0 1 .155-.898c.114-.286.286-.546.507-.766Z" fill="#F8F8F8"/></g><defs><clipPath id="a"><path fill="#fff" d="M0 0h24v28H0z"/></clipPath></defs></svg>