<svg width="25" height="28" viewBox="0 0 25 28" fill="none" xmlns="http://www.w3.org/2000/svg"><path d="M2.06.74a2.13 2.13 0 0 0-.71-.484A2.19 2.19 0 0 0 .5.087V0h6.155v.091c-.306 0-.609.067-.885.195a2.04 2.04 0 0 0-.712.545 2.678 2.678 0 0 0-.661 1.851v7.427h7.775V2.611a2.23 2.23 0 0 0-.174-.963 2.296 2.296 0 0 0-.57-.806 2.606 2.606 0 0 0-1.753-.75V.02h5.65v.07a2.558 2.558 0 0 0-1.752.764 2.37 2.37 0 0 0-.57.82c-.127.308-.187.64-.174.972v7.464h7.737V2.45a2.254 2.254 0 0 0-.156-.922 2.316 2.316 0 0 0-.52-.788 2.132 2.132 0 0 0-.707-.484 2.186 2.186 0 0 0-.85-.169V0H24.5v.091a2.127 2.127 0 0 0-.857.184c-.27.12-.509.293-.702.51a2.447 2.447 0 0 0-.661 1.758v22.129a2.631 2.631 0 0 0 .645 1.825 2.071 2.071 0 0 0 1.575.718v.139H10.073a.496.496 0 0 0-.37.217.673.673 0 0 0-.175.435H9.45l-.39-3.974h.117c.082.728.435 1.402.995 1.895a2.936 2.936 0 0 0 1.85.785h7.257c.177.003.352-.036.511-.111.16-.076.298-.187.404-.324.254-.308.385-.694.372-1.088V10.76H.5v-.139c.299 0 .593-.065.863-.189.27-.123.507-.303.696-.526.452-.507.688-1.16.662-1.828V2.404a2.204 2.204 0 0 0-.155-.898A2.263 2.263 0 0 0 2.059.74Z" fill="#F8F8F8"/></svg>