<svg width="21" height="28" viewBox="0 0 21 28" fill="none" xmlns="http://www.w3.org/2000/svg"><g clip-path="url(#a)"><path d="M20.2 20.343a6.064 6.064 0 0 0-.284-.577 5.14 5.14 0 0 0-.845-1.154l-.02-.022-.02-.018c-.102-.104-.212-.217-.328-.309l-.078-.063c-.097-.08-.211-.161-.31-.24l-.091-.063a6.067 6.067 0 0 0-.37-.233l-.044-.02a6.31 6.31 0 0 0-1.802-.668c-.78-.166-1.574-.179-3.025-.122a7.97 7.97 0 0 0-3.205.716 8.516 8.516 0 0 0-1.39.843l2.94-9.482s.136-.457.15-.523a9.088 9.088 0 0 0 .083-3.663v-.011a5.35 5.35 0 0 0-.374-1.357 5.813 5.813 0 0 0-.73-1.264l-.056-.078a5.577 5.577 0 0 0-.36-.416A5.486 5.486 0 0 0 8.35.438 5.07 5.07 0 0 0 6.26.002h-.274a5.07 5.07 0 0 0-2.09.436 5.487 5.487 0 0 0-1.69 1.18 5.727 5.727 0 0 0-1.16 1.759 5.53 5.53 0 0 0-.422 2.152 5.445 5.445 0 0 0 .423 2.141 5.71 5.71 0 0 0 1.147 1.743 5.47 5.47 0 0 0 1.7 1.182 5.07 5.07 0 0 0 2.09.436h.264a5.07 5.07 0 0 0 2.089-.436 5.63 5.63 0 0 0 1.096-.653L4.261 25.268c-.028.06-.097.218-.211.486a3.539 3.539 0 0 1-.52.839 3.443 3.443 0 0 1-.894.771c-.421.236-.897.35-1.377.331v.087h6.105v-.087a1.704 1.704 0 0 1-.79-.266 1.355 1.355 0 0 1-.478-.505 1.394 1.394 0 0 1-.063-.95l.942-3.036c.034-.07.064-.14.091-.218a11.49 11.49 0 0 1 1.305-2.68 6 6 0 0 1 2.113-1.851 6.025 6.025 0 0 1 2.112-.63c-.517.265-.99.613-1.4 1.03a5.677 5.677 0 0 0-1.147 1.744 5.55 5.55 0 0 0-.423 2.154 5.47 5.47 0 0 0 .423 2.141 5.496 5.496 0 0 0 2.847 2.923 5.09 5.09 0 0 0 2.09.436h.278a5.104 5.104 0 0 0 2.09-.436 5.487 5.487 0 0 0 1.69-1.182 5.761 5.761 0 0 0 1.146-1.743 5.453 5.453 0 0 0 .423-2.141 5.55 5.55 0 0 0-.412-2.142ZM7.739 10.123a3.408 3.408 0 0 1-1.528.381h-.177a3.415 3.415 0 0 1-1.527-.381 4.137 4.137 0 0 1-1.31-1.068 5.271 5.271 0 0 1-.88-1.588A5.726 5.726 0 0 1 1.99 5.53a5.823 5.823 0 0 1 .325-1.95 4.376 4.376 0 0 1 .89-1.44c.365-.44.81-.802 1.31-1.067A3.296 3.296 0 0 1 6.1.695a3.5 3.5 0 0 1 1.639.377c.5.266.945.628 1.312 1.067.384.416.686.905.887 1.44a5.8 5.8 0 0 1 .325 1.96 5.673 5.673 0 0 1-.325 1.94 5.32 5.32 0 0 1-.887 1.587 4.15 4.15 0 0 1-1.32 1.057h.006ZM18.95 24.436a5.304 5.304 0 0 1-.89 1.588 4.197 4.197 0 0 1-1.309 1.068 3.415 3.415 0 0 1-1.527.381h-.171a3.415 3.415 0 0 1-1.542-.381 4.197 4.197 0 0 1-1.31-1.068 5.308 5.308 0 0 1-.89-1.588 5.727 5.727 0 0 1-.324-1.938 5.841 5.841 0 0 1 .325-1.96 4.377 4.377 0 0 1 .887-1.438 4.458 4.458 0 0 1 1.312-1.061 3.322 3.322 0 0 1 1.588-.377 3.522 3.522 0 0 1 1.637.377c.5.267.945.63 1.312 1.07.385.414.686.902.888 1.437.219.629.329 1.292.325 1.96a5.726 5.726 0 0 1-.317 1.93h.006Z" fill="#F8F8F8"/></g><defs><clipPath id="a"><path fill="#fff" transform="translate(.625)" d="M0 0h20v28H0z"/></clipPath></defs></svg>