<svg width="35" height="24" viewBox="0 0 35 24" fill="none" xmlns="http://www.w3.org/2000/svg"><g clip-path="url(#a)"><path d="M34.5.013H8.11V0H1.516v.013H.5v.114c.42-.007.835.07 1.22.227.385.156.73.388 1.014.68.412.4.697.904.82 1.45V17.9a5.066 5.066 0 0 0 .575 2.358c.376.733.9 1.39 1.542 1.932a7.44 7.44 0 0 0 2.28 1.315c.898.33 1.853.496 2.815.488a7.988 7.988 0 0 0 2.814-.488 7.476 7.476 0 0 0 2.278-1.31 7.2 7.2 0 0 0 1.57-1.929c.123-.214.237-.426.344-.64.07.196.152.388.246.576a.292.292 0 0 0 .025.062c.38.738.907 1.4 1.553 1.95.67.556 1.44.994 2.275 1.291 1.814.65 3.817.65 5.631 0a7.482 7.482 0 0 0 2.278-1.291c.128-.109.249-.225.366-.344a5.587 5.587 0 0 0 1.187-1.413 5.475 5.475 0 0 0 .82-2.544V1.642c-.018-.201.02-.404.11-.589.09-.184.228-.343.402-.462A3.48 3.48 0 0 1 34.5.103v-.09Zm-4.55.726c.784 0 1.307.405 1.397 1.291v15.624a4.5 4.5 0 0 1-.462 1.808 5.705 5.705 0 0 1-1.348 1.836 6.64 6.64 0 0 1-1.964 1.26 5.272 5.272 0 0 1-2.188.466 5.183 5.183 0 0 1-1.952-.314 4.962 4.962 0 0 1-1.663-1.014 5.393 5.393 0 0 1-1.195-1.508 5.555 5.555 0 0 1-.588-2.52V1.779c0-.682.274-1.034.916-1.034L29.95.74ZM17.436 17.654a4.5 4.5 0 0 1-.462 1.808 5.705 5.705 0 0 1-1.349 1.836 6.636 6.636 0 0 1-1.955 1.263 5.27 5.27 0 0 1-2.188.465 5.183 5.183 0 0 1-1.956-.313 4.963 4.963 0 0 1-1.667-1.017 5.216 5.216 0 0 1-1.31-1.743 5.555 5.555 0 0 1-.484-2.3V2.656a1.807 1.807 0 0 1 .525-1.322 1.8 1.8 0 0 1 .593-.429A1.9 1.9 0 0 1 7.908.74h8.623a.866.866 0 0 1 .63.2.777.777 0 0 1 .198.26c.046.1.069.206.068.315.003.045.003.09 0 .136l.009 16.004Z" fill="#F8F8F8"/></g><defs><clipPath id="a"><path fill="#fff" transform="translate(.5)" d="M0 0h34v24H0z"/></clipPath></defs></svg>