<svg width="14" height="26" viewBox="0 0 14 26" fill="none" xmlns="http://www.w3.org/2000/svg"><path d="M.697 26v-.142a2.974 2.974 0 0 0 1.069-.283 3.26 3.26 0 0 0 .729-.613c.227-.252.34-.614.34-1.086V9.292c0-.44-.113-.771-.34-.991a1.839 1.839 0 0 0-.729-.52A3.81 3.81 0 0 0 .697 7.64v-.142h10.981a.613.613 0 0 0 .437-.189c.162-.157.243-.314.243-.472h.097l.438 4.06h-.098c-.129-.787-.55-1.432-1.263-1.936A3.602 3.602 0 0 0 9.25 8.16H6.528a1.61 1.61 0 0 0-1.166.472c-.292.283-.438.645-.438 1.086v14.16c0 .471.114.833.34 1.085.227.251.47.456.73.613.29.158.63.252 1.02.283V26H.697ZM14 .59a4.28 4.28 0 0 1-1.325 1.623 5.01 5.01 0 0 1-1.785.819 6.527 6.527 0 0 1-2.048.144 11.066 11.066 0 0 1-2.113-.382 27.888 27.888 0 0 1-1.67-.545 7.102 7.102 0 0 0-1.7-.407 3.467 3.467 0 0 0-1.557.175 2.669 2.669 0 0 0-1.296 1.19L0 2.728a4.572 4.572 0 0 1 1.325-1.637A5.131 5.131 0 0 1 3.11.214 6.513 6.513 0 0 1 5.158.012c.713.04 1.42.155 2.104.346.567.166 1.125.36 1.67.581a7.177 7.177 0 0 0 1.7.464 3.46 3.46 0 0 0 1.557-.117c.48-.153.91-.546 1.296-1.16L14 .59Z" fill="#1E1E1E"/></svg>