<svg width="38" height="33" viewBox="0 0 38 33" fill="none" xmlns="http://www.w3.org/2000/svg"><path d="M37.448 4.073c-.71-1.597-2.044-2.87-3.722-3.548A7.11 7.11 0 0 0 30.996 0H6.977a7.115 7.115 0 0 0-4.91 1.95A6.87 6.87 0 0 0 .552 4.073 6.225 6.225 0 0 0 0 6.67a6.107 6.107 0 0 0 .552 2.577 6.86 6.86 0 0 0 1.5 2.1 7.167 7.167 0 0 0 4.953 1.95h.345a7.108 7.108 0 0 0 2.73-.525c1.672-.677 3.006-1.939 3.725-3.525.098-.213.184-.431.257-.653l3.894 8.373L10 33h18.048l-8.17-17.474 3.788-8.3c.057.697.237 1.38.533 2.02.717 1.586 2.05 2.848 3.722 3.522.861.352 1.79.531 2.728.525h.345a7.109 7.109 0 0 0 2.73-.525c1.671-.676 3.004-1.937 3.723-3.522.371-.813.56-1.69.552-2.577a6.183 6.183 0 0 0-.552-2.596ZM12.162 9.002a6.287 6.287 0 0 1-1.16 1.913 5.4 5.4 0 0 1-1.714 1.289c-.62.293-1.303.45-1.996.457h-.224a4.808 4.808 0 0 1-1.996-.457 5.39 5.39 0 0 1-1.712-1.289 6.227 6.227 0 0 1-1.15-1.913 6.399 6.399 0 0 1-.425-2.333 6.54 6.54 0 0 1 .425-2.362 5.175 5.175 0 0 1 1.162-1.732 5.676 5.676 0 0 1 1.712-1.289A4.634 4.634 0 0 1 7.157.832a4.938 4.938 0 0 1 2.142.454 5.724 5.724 0 0 1 1.715 1.289 5.208 5.208 0 0 1 1.16 1.732 6.48 6.48 0 0 1 .425 2.362 6.345 6.345 0 0 1-.437 2.333Zm11.464 20.169c.218.446.422.874.138 1.312-.102.126-.23.23-.375.307a1.265 1.265 0 0 1-.473.14h-9.57a1.001 1.001 0 0 1-.404-.125.95.95 0 0 1-.31-.277c-.276-.389-.05-.934.17-1.38l5.655-11.302 5.169 11.325Zm-4.224-14.523-4.192-9.16s-1.165-2.58-2.785-3.735a10.163 10.163 0 0 0-1.56-.91h16.403a7.737 7.737 0 0 0-.795.49.632.632 0 0 1-.072.042c-.4.261-.755.581-1.05.948a6.837 6.837 0 0 0-1.153 1.75c-.028.063-.053.129-.08.192-.122.241-.216.44-.277.564l-4.439 9.82Zm16.403-5.646a6.29 6.29 0 0 1-1.16 1.913 5.401 5.401 0 0 1-1.714 1.289c-.624.294-1.31.45-2.008.457H30.7a4.806 4.806 0 0 1-1.985-.457 5.39 5.39 0 0 1-1.712-1.289 6.231 6.231 0 0 1-1.163-1.913 6.4 6.4 0 0 1-.425-2.333 6.542 6.542 0 0 1 .425-2.362 5.175 5.175 0 0 1 1.163-1.732 5.68 5.68 0 0 1 1.712-1.278 4.634 4.634 0 0 1 2.073-.454 4.93 4.93 0 0 1 2.143.454 5.725 5.725 0 0 1 1.714 1.288 5.208 5.208 0 0 1 1.16 1.732 6.48 6.48 0 0 1 .425 2.362 6.344 6.344 0 0 1-.425 2.323Z" fill="#1E1E1E"/></svg>