<svg width="15" height="25" viewBox="0 0 15 25" fill="none" xmlns="http://www.w3.org/2000/svg"><path d="M.734 24.864c.489 0 .896-.09 1.221-.272a4.56 4.56 0 0 0 .831-.681c.228-.242.39-.5.489-.772a4.02 4.02 0 0 0 .244-.59l3.127-10.982c.065-.152.097-.348.097-.59 0-.273-.032-.53-.097-.772l-.88-2.995h2.785c-.163.514-.26.877-.293 1.089 0 .212.049.484.146.817l3.762 13.297c.163.666.473 1.24.929 1.725.488.484 1.123.726 1.905.726V25H8.746v-.136c.359-.03.668-.121.929-.272a1.37 1.37 0 0 0 .537-.5c.163-.211.196-.53.098-.953l-1.417-4.901H5.424l-1.417 4.901c-.097.424-.081.757.05.999.162.242.374.423.634.544.261.121.57.182.929.182V25H.734v-.136Zm8.012-7.261-1.563-5.537-1.563 5.537h3.126ZM14.077.567a4.16 4.16 0 0 1-1.332 1.561 5.148 5.148 0 0 1-1.795.787 6.855 6.855 0 0 1-2.06.14c-.72-.057-1.432-.18-2.124-.368a28.97 28.97 0 0 1-1.68-.525 7.414 7.414 0 0 0-1.709-.39 3.636 3.636 0 0 0-1.565.167A2.642 2.642 0 0 0 .51 3.083L0 2.623A4.44 4.44 0 0 1 1.333 1.05 5.258 5.258 0 0 1 3.127.205a6.837 6.837 0 0 1 2.06-.194c.717.038 1.427.15 2.115.333.57.16 1.131.346 1.68.56.545.214 1.12.364 1.709.445a3.644 3.644 0 0 0 1.565-.113c.483-.147.915-.524 1.303-1.114l.518.445Z" fill="#1E1E1E"/></svg>