<svg width="14" height="27" viewBox="0 0 14 27" fill="none" xmlns="http://www.w3.org/2000/svg"><path d="m1.153 26.902.275-.049a3.14 3.14 0 0 0 .688-.196 1.9 1.9 0 0 0 .688-.54c.215-.228.322-.555.322-.98V9.65c0-.425-.107-.751-.322-.98a2.07 2.07 0 0 0-.642-.54 3.297 3.297 0 0 0-1.01-.244v-.098h6.103a4.424 4.424 0 0 1 3.35 1.52c.458.457.81.996 1.055 1.617.245.588.367 1.225.367 1.911 0 .915-.214 1.732-.642 2.45a5.334 5.334 0 0 1-1.698 1.765c1.193.13 2.202.67 3.028 1.618C13.572 19.583 14 20.694 14 22c0 .686-.122 1.34-.367 1.96a4.68 4.68 0 0 1-1.055 1.618 5.093 5.093 0 0 1-1.514 1.029A4.425 4.425 0 0 1 9.227 27H1.153v-.098ZM5.099 10.09v14.606c0 .458.137.85.413 1.177.305.294.673.44 1.1.44h2.524c.796 0 1.469-.408 2.02-1.224.58-.85.871-1.88.871-3.088a5.41 5.41 0 0 0-.23-1.618 3.913 3.913 0 0 0-.596-1.372 3.066 3.066 0 0 0-.872-.931 1.85 1.85 0 0 0-1.055-.344H7.072v-.686c.795 0 1.483-.408 2.064-1.225.582-.817.872-1.814.872-2.99 0-1.176-.275-2.19-.826-3.039-.55-.882-1.223-1.323-2.019-1.323h-.55c-.428 0-.796.163-1.101.49-.276.294-.413.67-.413 1.127ZM13.22.613a4.385 4.385 0 0 1-1.251 1.685 4.52 4.52 0 0 1-1.685.85 5.62 5.62 0 0 1-1.934.15 9.602 9.602 0 0 1-1.995-.396 24.685 24.685 0 0 1-1.578-.567 6.207 6.207 0 0 0-1.605-.422 2.997 2.997 0 0 0-1.47.181A2.63 2.63 0 0 0 .478 3.33L0 2.834a4.69 4.69 0 0 1 1.252-1.7A4.684 4.684 0 0 1 2.937.222a5.617 5.617 0 0 1 1.934-.21c.674.041 1.34.162 1.987.36.536.172 1.062.374 1.577.603a6.302 6.302 0 0 0 1.605.482c.493.083.997.04 1.47-.122.454-.158.86-.566 1.224-1.204l.487.482Z" fill="#1E1E1E"/></svg>