<svg width="45" height="33" viewBox="0 0 45 33" fill="none" xmlns="http://www.w3.org/2000/svg"><path d="M23.93 31.721a17.11 17.11 0 0 0 5.491-3.515 16.69 16.69 0 0 0 3.698-5.26c.168-.38.315-.764.455-1.15L45 26.705V6.297l-11.433 4.916c-.136-.38-.283-.753-.448-1.122a16.798 16.798 0 0 0-3.698-5.232 17.622 17.622 0 0 0-5.49-3.55 17.85 17.85 0 0 0-13.41 0 17.715 17.715 0 0 0-5.466 3.55 16.798 16.798 0 0 0-3.698 5.232A15.31 15.31 0 0 0 0 16.5a15.521 15.521 0 0 0 1.357 6.446 16.69 16.69 0 0 0 3.698 5.26 17.2 17.2 0 0 0 5.466 3.515 18.218 18.218 0 0 0 13.41 0Zm19.996-21.84v13.175l-9.665-4.042c.129-.832.192-1.672.19-2.514a16.375 16.375 0 0 0-.194-2.532l9.67-4.088Zm-10.61 8.725L28.305 16.5l5.011-2.13a11.642 11.642 0 0 1 0 4.237ZM11.122 28.859a17.587 17.587 0 0 1-5.272-2.802 13.288 13.288 0 0 1-3.58-4.233 11.152 11.152 0 0 1-1.314-5.328 10.975 10.975 0 0 1 1.314-5.291 13.802 13.802 0 0 1 3.58-4.233 17.085 17.085 0 0 1 5.272-2.842 17.825 17.825 0 0 1 6.114-1.03 17.831 17.831 0 0 1 6.118 1.03 17.163 17.163 0 0 1 5.273 2.842 13.902 13.902 0 0 1 3.58 4.233c.085.163.164.327.243.49L21.256 16.5l11.19 4.812c-.082.174-.164.355-.254.515a13.379 13.379 0 0 1-3.58 4.233 17.65 17.65 0 0 1-5.272 2.803 17.832 17.832 0 0 1-6.118 1.026 17.825 17.825 0 0 1-6.1-1.03Z" fill="#1E1E1E"/></svg>