<svg width="15" height="28" viewBox="0 0 15 28" fill="none" xmlns="http://www.w3.org/2000/svg"><path d="m3.519 21.741 2.824-10.355c.154-.69.108-1.396-.14-2.117a32.51 32.51 0 0 1-.647-2.116h2.638c-.092.33-.17.63-.231.9-.062.24-.046.54.046.901l3.473 12.742c.246.78.679 1.396 1.296 1.846.648.42 1.389.63 2.222.63L13.935 28h-.139c.062-.3.108-.645.14-1.036.03-.36 0-.705-.093-1.035a2.15 2.15 0 0 0-.463-.81c-.216-.21-.556-.316-1.019-.316H2.64c-.432 0-.772.105-1.019.315a2.11 2.11 0 0 0-.463.856c-.092.33-.138.675-.138 1.035.03.39.077.72.138.991H1.02L0 24.173c.648 0 1.188-.09 1.62-.27.432-.21.772-.436 1.019-.676.278-.27.478-.54.602-.81.154-.27.247-.495.278-.676Zm1.388 2.432H8.75c.309 0 .586-.105.833-.315.278-.24.355-.57.232-.99L6.852 11.925 3.889 22.867c-.093.33-.108.585-.046.765.092.18.2.316.324.406.123.06.262.105.416.135h.324ZM14.175.563a4.082 4.082 0 0 1-1.263 1.548 4.77 4.77 0 0 1-1.7.781 6.211 6.211 0 0 1-1.952.138 10.533 10.533 0 0 1-2.013-.364 26.564 26.564 0 0 1-1.592-.52 6.76 6.76 0 0 0-1.62-.389 3.3 3.3 0 0 0-1.483.167 2.544 2.544 0 0 0-1.235 1.135l-.482-.456a4.36 4.36 0 0 1 1.263-1.561 4.89 4.89 0 0 1 1.7-.838A6.199 6.199 0 0 1 5.75.01c.68.038 1.352.149 2.004.33.541.159 1.073.344 1.592.555a6.832 6.832 0 0 0 1.62.442 3.304 3.304 0 0 0 1.483-.111c.457-.146.867-.52 1.235-1.106l.49.442Z" fill="#1E1E1E"/></svg>