<svg width="14" height="28" viewBox="0 0 14 28" fill="none" xmlns="http://www.w3.org/2000/svg"><path d="M11.705 22.843c-.356 1.281-.874 2.343-1.555 3.185-.68.81-1.425 1.214-2.235 1.214-.615 0-1.182-.253-1.7-.759-.519-.539-.956-1.247-1.312-2.123-.389-.91-.68-1.938-.875-3.084-.227-1.18-.34-2.41-.34-3.69.227.27.6.607 1.118 1.011a2.934 2.934 0 0 0 2.915.303 3.72 3.72 0 0 0 .972-.707c.291-.304.631-.54 1.02-.708.389-.169.81-.135 1.263.1l.049-.1a3.696 3.696 0 0 0-.389-.354l-.486-.202a1.349 1.349 0 0 0-.631-.152c-.26 0-.551.067-.875.202-.356.101-.81.32-1.36.658-.292.168-.567.32-.826.454-.26.135-.486.203-.68.203-.422 0-.827-.186-1.215-.556-.421-.405-.697-.691-.826-.86a16.96 16.96 0 0 1 .388-3.235c.227-1.011.519-1.888.875-2.629.356-.741.777-1.314 1.263-1.719.454-.438.94-.657 1.458-.657.842 0 1.62.303 2.332.91.68.573 1.069 1.264 1.166 2.073h.146l-.34-3.59h-.097c.064.742-.292.91-1.07.506a9.508 9.508 0 0 0-1.165-.455 3.846 3.846 0 0 0-1.166-.202c-.81 0-1.572.27-2.284.808-.713.506-1.328 1.214-1.847 2.124-.55.91-.987 1.971-1.311 3.185a15.041 15.041 0 0 0-.486 3.892c0 1.382.162 2.697.486 3.944.324 1.213.76 2.274 1.312 3.184.55.91 1.198 1.635 1.943 2.174.745.54 1.555.809 2.43.809 1.1 0 2.008-.438 2.72-1.314.713-.877 1.345-2.073 1.895-3.59l-.68-.253ZM14 .632a4.535 4.535 0 0 1-1.325 1.739 4.862 4.862 0 0 1-1.785.876 6.106 6.106 0 0 1-2.048.155 10.4 10.4 0 0 1-2.113-.409 26.6 26.6 0 0 1-1.67-.584 6.713 6.713 0 0 0-1.7-.436 3.252 3.252 0 0 0-1.557.187A2.748 2.748 0 0 0 .506 3.434L0 2.923A4.848 4.848 0 0 1 1.325 1.17 5.002 5.002 0 0 1 3.11.229 6.1 6.1 0 0 1 5.158.013c.713.042 1.42.166 2.104.37a16.83 16.83 0 0 1 1.67.623 6.806 6.806 0 0 0 1.7.497 3.252 3.252 0 0 0 1.557-.126c.48-.163.91-.584 1.296-1.242L14 .632Z" fill="#1E1E1E"/></svg>